<svg width="28" height="28" viewBox="0 0 28 28" fill="none" xmlns="http://www.w3.org/2000/svg">
<g id="crane-truck_svgrepo.com">
<path id="Vector" d="M7.31427 25.1417C8.54495 25.1417 9.5426 24.144 9.5426 22.9133C9.5426 21.6827 8.54495 20.685 7.31427 20.685C6.0836 20.685 5.08594 21.6827 5.08594 22.9133C5.08594 24.144 6.0836 25.1417 7.31427 25.1417Z" stroke="#020202" stroke-miterlimit="10"/>
<path id="Vector_2" d="M20.6854 25.1417C21.916 25.1417 22.9137 24.144 22.9137 22.9133C22.9137 21.6827 21.916 20.685 20.6854 20.685C19.4547 20.685 18.457 21.6827 18.457 22.9133C18.457 24.144 19.4547 25.1417 20.6854 25.1417Z" stroke="#020202" stroke-miterlimit="10"/>
<path id="Vector_3" d="M22.9137 22.9133H26.2504V16.2283L24.5004 8.995C24.3781 8.50404 24.0915 8.06968 23.6883 7.76408C23.2851 7.45847 22.7894 7.3 22.2837 7.315H18.457V22.9133" stroke="#020202" stroke-miterlimit="10"/>
<path id="Vector_4" d="M9.54333 22.9133H18.4567V17.3367H1.75V22.9133H5.08667" stroke="#020202" stroke-miterlimit="10"/>
<path id="Vector_5" d="M18.457 15.12L21.7937 16.2283H22.9137H26.2504" stroke="#020202" stroke-miterlimit="10"/>
<path id="Vector_6" d="M3.9787 2.85834V8.435L5.08703 10.5V11.2467C5.08704 11.6902 4.91165 12.1158 4.5991 12.4305C4.28656 12.7452 3.86224 12.9236 3.4187 12.9267C3.19609 12.9252 2.97599 12.8794 2.7712 12.7921C2.56641 12.7049 2.38102 12.5777 2.22579 12.4182C2.07056 12.2586 1.94859 12.0697 1.86698 11.8626C1.78536 11.6555 1.74572 11.4342 1.75037 11.2117V10.6633" stroke="#1A9E75" stroke-width="0.8" stroke-miterlimit="10"/>
<path id="Vector_7" d="M18.4574 17.3367H10.6641L12.8807 12.88H18.4574V17.3367Z" stroke="#020202" stroke-miterlimit="10"/>
<path id="Vector_8" d="M1.75 2.87H7.315L12.88 12.88" stroke="#1A9E75" stroke-miterlimit="10"/>
</g>
</svg>
