<svg width="112" height="96" viewBox="0 0 112 96" fill="none" xmlns="http://www.w3.org/2000/svg">
<g id="Frame" clip-path="url(#clip0_841_115)">
<g id="Group">
<path id="Vector" opacity="0.3" d="M85.9565 96C100.339 96 111.999 92.762 111.999 88.7678C111.999 84.7735 100.339 81.5356 85.9565 81.5356C71.5737 81.5356 59.9141 84.7735 59.9141 88.7678C59.9141 92.762 71.5737 96 85.9565 96Z" fill="#151D28"/>
<g id="Group_2">
<g id="Group_3">
<path id="Vector_2" d="M100.328 87.0588C100.006 89.0154 98.1726 90.3281 96.2151 90.0062L72.923 86.1671C70.9655 85.8452 69.6522 84.0123 69.9744 82.0557L78.5478 29.969C78.8699 28.0124 80.7036 26.6997 82.6611 27.0216L105.953 30.8606C107.911 31.1826 109.224 33.0154 108.902 34.9721L100.328 87.0588Z" fill="#151D28"/>
<path id="Vector_3" d="M99.1135 86.8607C98.7914 88.8173 96.9577 90.13 95.0002 89.808L71.7082 85.969C69.7507 85.647 68.4374 83.8142 68.7595 81.8576L77.3577 29.7709C77.6799 27.8142 79.5135 26.5015 81.471 26.8235L104.763 30.6625C106.721 30.9845 108.034 32.8173 107.712 34.774L99.1135 86.8607Z" fill="#384259"/>
<path id="Vector_4" d="M95.892 31.4303C95.8425 31.7275 95.5699 31.9009 95.2974 31.8514L90.0195 30.9845C89.7221 30.935 89.5487 30.6625 89.5982 30.3901C89.6478 30.0929 89.9204 29.9195 90.1929 29.969L95.4708 30.8359C95.7434 30.8854 95.9416 31.1579 95.892 31.4303Z" fill="#151D28"/>
<path id="Vector_5" d="M81.4943 83.6656C81.2713 85.0526 82.1881 86.3405 83.5757 86.5635C84.9633 86.7864 86.2518 85.87 86.4748 84.483C86.6979 83.096 85.781 81.808 84.3934 81.5851C83.0058 81.3622 81.7173 82.2786 81.4943 83.6656Z" fill="#151D28"/>
</g>
<g id="Group_4">
<path id="Vector_6" d="M78.9937 31.6808L71.2539 78.627L97.8057 83.0005L105.545 36.0544L78.9937 31.6808Z" fill="white"/>
<path id="Vector_7" opacity="0.3" d="M97.7763 83.0216L71.2383 78.6377L105.532 36.0619L97.7763 83.0216Z" fill="#C4EDDE"/>
</g>
</g>
</g>
<g id="Group_5">
<g id="Group_6">
<path id="Vector_8" opacity="0.3" d="M26.5386 96C40.9214 96 52.581 92.7621 52.581 88.7678C52.581 84.7736 40.9214 81.5356 26.5386 81.5356C12.1557 81.5356 0.496094 84.7736 0.496094 88.7678C0.496094 92.7621 12.1557 96 26.5386 96Z" fill="#151D28"/>
<g id="Group_7">
<g id="Group_8">
<path id="Vector_9" d="M47.6013 81.1393C47.6013 81.1393 40.9854 79.1579 39.6969 79.3808C38.4084 79.6037 23.9128 87.678 26.1429 90.675C28.3978 93.6719 32.3129 93.4489 32.4863 93.3251C32.6845 93.2013 47.6013 81.1393 47.6013 81.1393Z" fill="#151D28"/>
<path id="Vector_10" d="M28.3219 94.514C28.3219 94.514 2.72547 88.5449 0.743167 85.87C-1.23913 83.1951 0.990955 80.8669 3.86529 79.5542C6.71485 78.2663 16.4033 72.0248 18.4848 72.2972C20.5662 72.5697 45.1963 76.5325 45.5432 77.9938C45.8901 79.4551 27.4794 88.5449 28.3467 91.0465C29.214 93.548 31.4688 93.8205 35.706 90.7988C39.9432 87.7771 47.3768 80.1734 47.6246 81.1146C47.8724 82.0557 39.3237 88.8917 34.9131 92.2601C30.5025 95.6533 28.7679 94.613 28.3219 94.514Z" fill="#384259"/>
<path id="Vector_11" d="M47.6 81.1394C47.3523 80.1982 39.9186 87.8019 35.6815 90.8236C31.4443 93.8452 29.1894 93.5976 28.3222 91.0712C27.4549 88.5697 45.8655 79.5047 45.5186 78.0186C45.4691 77.8205 44.9487 77.5728 44.1062 77.2756C44.354 77.6223 44.131 78.0186 43.1151 78.613C41.2071 79.7276 29.2885 88.8174 27.3806 89.065C25.6956 89.288 5.67438 82.774 1.2142 81.3127C-0.0495129 82.5759 -0.520309 84.1363 0.768186 85.87C2.75049 88.5449 28.3469 94.514 28.3469 94.514C28.7682 94.5883 30.5027 95.6285 34.9133 92.2601C39.2992 88.9164 47.8726 82.0805 47.6 81.1394Z" fill="#2C3649"/>
</g>
<g id="Group_9">
<path id="Vector_12" d="M11.9937 90.3777C11.9937 90.3777 9.83791 85.7957 10.953 83.8142C12.068 81.8328 19.3282 76.8049 21.6822 76.7306C23.5158 76.6563 28.2485 77.3251 23.937 80.6192C19.6255 83.9133 16.5777 85.548 16.8503 86.4149C17.0981 87.2817 16.776 91.1703 17.445 91.9381C17.445 91.9381 13.3813 92.2848 11.9937 90.3777Z" fill="#44526D"/>
<path id="Vector_13" opacity="0.8" d="M23.7375 76.904C25.026 77.4241 25.5959 78.4644 23.0685 80.421C18.757 83.7647 15.7092 85.4241 15.9818 86.3158C16.2296 87.1826 15.9074 91.1455 16.5765 91.9381C16.5765 91.9381 16.4526 91.938 16.2543 91.9628C16.9481 91.9876 17.4437 91.9381 17.4437 91.9381C16.7499 91.1702 17.0968 87.2817 16.849 86.4148C16.6012 85.548 19.6242 83.9133 23.9358 80.6192C26.9835 78.291 25.4968 77.2755 23.7375 76.904Z" fill="#2C3649"/>
<path id="Vector_14" opacity="0.8" d="M18.7815 80.0248C18.9797 80.7926 20.1691 81.1641 21.4328 80.8421C22.6965 80.5201 23.5886 79.6285 23.3904 78.8607C23.1921 78.0929 22.0027 77.7213 20.739 78.0433C19.4753 78.3901 18.5833 79.257 18.7815 80.0248Z" fill="#2C3649"/>
<g id="Group_10">
<path id="Vector_15" d="M18.7815 79.6037C18.9797 80.3715 20.1691 80.7431 21.4328 80.4211C22.6965 80.0991 23.5886 79.2075 23.3904 78.4397C23.1921 77.6718 22.0027 77.3003 20.739 77.6223C19.4753 77.9443 18.5833 78.8359 18.7815 79.6037Z" fill="#FFD3B5"/>
<path id="Vector_16" opacity="0.2" d="M23.3886 78.4397C23.3143 78.1424 23.0913 77.8948 22.7444 77.7462C22.794 77.8205 22.8435 77.9195 22.8683 78.0186C23.0665 78.7864 22.1993 79.678 20.9108 80C20.1426 80.1982 19.3993 80.1486 18.8789 79.901C19.2506 80.4706 20.2913 80.7183 21.4063 80.4458C22.7196 80.0743 23.5869 79.2075 23.3886 78.4397Z" fill="#384259"/>
</g>
</g>
<g id="Group_11">
<g id="Group_12">
<g id="Group_13">
<path id="Vector_17" d="M28.4942 90.675C28.4942 90.675 33.7721 92.4087 36.3243 94.6874L46.5332 88.1982C46.5332 88.1982 42.8164 84.3592 39.5208 83.3932C39.5208 83.418 27.3792 89.4366 28.4942 90.675Z" fill="#C4EDDE"/>
<g id="Group_14">
<g id="Clip path group">
<mask id="mask0_841_115" style="mask-type:luminance" maskUnits="userSpaceOnUse" x="28" y="83" width="19" height="12">
<g id="SVGID_2_">
<path id="Vector_18" d="M28.4947 90.675C29.0894 92.2849 33.7726 92.4087 36.3248 94.6874L46.5337 88.1982C46.5337 88.1982 42.8168 84.3592 39.5213 83.3932C39.5213 83.418 27.9 89.0898 28.4947 90.675Z" fill="white"/>
</g>
</mask>
<g mask="url(#mask0_841_115)">
<path id="Vector_19" d="M27.1562 89.6843C27.1562 89.6843 33.8465 91.9877 36.2253 94.1425L45.7403 88.0991C45.7403 88.0991 36.6217 82.0806 33.5492 81.1889C33.5492 81.1641 29.0642 87.9505 27.1562 89.6843Z" stroke="white" stroke-width="0.6977" stroke-miterlimit="10"/>
</g>
</g>
</g>
</g>
<g id="Group_15" opacity="0.3">
<path id="Vector_20" d="M28.4961 90.675C28.4961 90.675 33.774 92.4087 36.3262 94.6874L46.535 88.1982C46.535 88.1982 42.8182 84.3592 39.5226 83.3932C39.5226 83.418 30.528 88.8174 28.4961 90.675Z" fill="#384259"/>
<g id="Group_16">
<path id="Vector_21" d="M28.4952 90.675C28.4952 90.675 33.7731 92.4087 36.3253 94.6874L46.5341 88.1982C46.5341 88.1982 42.8173 84.3592 39.5217 83.3932C39.5217 83.418 27.4049 89.3871 28.4952 90.675Z" fill="#384259"/>
<g id="Clip path group_2">
<mask id="mask1_841_115" style="mask-type:luminance" maskUnits="userSpaceOnUse" x="28" y="83" width="19" height="12">
<g id="SVGID_4_">
<path id="Vector_22" d="M28.4952 90.675C28.4952 90.675 33.7731 92.4087 36.3253 94.6874L46.5341 88.1982C46.5341 88.1982 42.8173 84.3592 39.5217 83.3932C39.5217 83.418 27.4049 89.3871 28.4952 90.675Z" fill="white"/>
</g>
</mask>
<g mask="url(#mask1_841_115)">
<path id="Vector_23" d="M27.8516 89.8081C27.8516 89.8081 33.848 91.9877 36.2268 94.1177L45.7418 88.0744C45.7418 88.0744 41.8763 84.3097 38.8038 83.418C38.8038 83.418 29.7595 88.0744 27.8516 89.8081Z" fill="#384259"/>
</g>
</g>
</g>
</g>
</g>
<g id="Group_17">
<path id="Vector_24" d="M29.707 89.0403C29.707 89.0403 34.9849 90.774 37.5371 93.0527L47.746 86.5635C47.746 86.5635 44.0292 82.7245 40.7336 81.7585C40.7336 81.7833 31.7389 87.1827 29.707 89.0403Z" fill="#C4EDDE"/>
<g id="Group_18">
<g id="Clip path group_3">
<mask id="mask2_841_115" style="mask-type:luminance" maskUnits="userSpaceOnUse" x="29" y="81" width="19" height="13">
<g id="SVGID_6_">
<path id="Vector_25" d="M29.707 89.0403C29.707 89.0403 34.9849 90.774 37.5371 93.0527L47.746 86.5635C47.746 86.5635 44.0292 82.7245 40.7336 81.7585C40.7336 81.7833 31.7389 87.1827 29.707 89.0403Z" fill="white"/>
</g>
</mask>
<g mask="url(#mask2_841_115)">
<path id="Vector_26" d="M29.707 88.5697C29.707 88.5697 35.0592 90.353 37.438 92.5078L46.953 86.4644C46.953 86.4644 43.0876 82.6997 40.015 81.8081C40.015 81.7833 31.615 86.8359 29.707 88.5697Z" stroke="white" stroke-width="0.6977" stroke-miterlimit="10"/>
</g>
</g>
</g>
<path id="Vector_27" opacity="0.2" d="M33.2765 89.6595C34.8624 88.3715 36.3986 87.0341 37.9349 85.7214C39.273 84.6068 40.611 83.4923 41.6765 82.1053C41.3544 81.9567 41.0323 81.8576 40.7101 81.7585C40.7101 81.7585 31.7155 87.1579 29.6836 89.0155C29.6836 89.0155 30.9969 89.4366 32.6075 90.1548C32.8553 90.0062 33.0535 89.8328 33.2765 89.6595Z" fill="#384259"/>
</g>
</g>
</g>
</g>
<g id="Group_19">
<path id="Vector_28" opacity="0.3" d="M22.081 82.2043C28.0887 82.2043 32.9589 81.0843 32.9589 79.7028C32.9589 78.3212 28.0887 77.2012 22.081 77.2012C16.0733 77.2012 11.2031 78.3212 11.2031 79.7028C11.2031 81.0843 16.0733 82.2043 22.081 82.2043Z" fill="#151D28"/>
<g id="Group_20">
<g id="Group_21">
<path id="Vector_29" d="M18.7315 15.8514C18.7315 15.8514 21.4324 14.8359 23.5634 16.9659C25.6944 19.096 23.2165 21.1765 24.1581 24C25.0997 26.8483 21.036 29.3746 18.3103 26.3282C15.5846 23.2817 18.7315 15.8514 18.7315 15.8514Z" fill="#293244"/>
<g id="Group_22">
<path id="Vector_30" d="M18.9826 25.5605C18.9826 25.5605 18.1153 27.641 18.7596 27.9877C19.4038 28.3345 22.1542 27.5171 23.0215 29.028C23.8888 30.5388 23.8888 34.6255 23.8888 34.6255C23.8888 34.6255 14.3242 37.5729 12.8622 34.7989C11.4003 32.0249 10.6817 29.5976 11.6976 28.7555C12.7383 27.8887 15.4392 29.1518 15.5631 24.9413C15.7118 20.706 18.9826 25.5605 18.9826 25.5605Z" fill="#FFD3B5"/>
<path id="Vector_31" d="M18.5373 27.4923C18.4877 26.774 19.0081 25.5604 19.0081 25.5604C19.0081 25.5604 15.7125 20.7059 15.6134 24.9164C15.6134 25.2136 15.5886 25.4861 15.5391 25.7338C16.2329 26.6997 17.2984 27.2446 18.5373 27.4923Z" fill="#E5B391"/>
</g>
<g id="Group_23">
<path id="Vector_32" d="M18.1883 16.322C18.1883 16.322 22.0786 16.6439 22.2521 20.2353C22.4255 23.8266 20.022 28.1362 15.1158 24.5696C15.1158 24.5696 12.9105 21.8699 13.5795 19.2446C14.2733 16.6192 18.1883 16.322 18.1883 16.322Z" fill="#FFD3B5"/>
<path id="Vector_33" d="M19.3277 14.7616C19.3277 14.7616 21.31 16.3963 20.1702 18.0805C19.0303 19.7399 15.487 18.0557 16.3047 21.969C16.8994 24.8173 16.7755 25.9319 14.6941 26.8483C12.6126 27.7647 9.3914 25.6594 9.49052 23.356C9.61441 21.0526 11.2994 21.3003 12.1418 18.5511C13.0834 15.5542 15.3383 12.1858 19.3277 14.7616Z" fill="#384259"/>
</g>
</g>
<g id="Group_24">
<g id="Group_25">
<path id="Vector_34" d="M18.0624 20.7059C18.0624 20.7059 18.0624 20.7554 18.0624 20.805C18.0624 20.8793 18.0624 20.9536 18.0872 21.0774C18.112 21.1765 18.1368 21.3003 18.2111 21.3994C18.2854 21.4985 18.4093 21.5728 18.5332 21.5975C18.6571 21.6471 18.781 21.6471 18.9049 21.5728C19.004 21.5232 19.0784 21.4242 19.1527 21.3251C19.2023 21.226 19.2518 21.1517 19.2766 21.1022C19.3014 21.0527 19.3261 21.0031 19.3261 21.0031C19.3261 21.0031 19.3261 21.1517 19.2518 21.3746C19.2022 21.4737 19.1279 21.6223 19.004 21.6966C18.9297 21.7461 18.8553 21.7709 18.7562 21.7709C18.6571 21.7709 18.5828 21.7709 18.5084 21.7462C18.3598 21.6966 18.2111 21.5975 18.112 21.4737C18.0129 21.3499 18.0129 21.2013 18.0129 21.0774C17.9881 20.8297 18.0624 20.7059 18.0624 20.7059Z" fill="#384259"/>
</g>
<g id="Group_26">
<path id="Vector_35" d="M20.5156 21.3746C20.5156 21.3746 20.5156 21.4242 20.5156 21.4737C20.5156 21.548 20.5156 21.6223 20.5403 21.7462C20.5651 21.8452 20.5899 21.9691 20.6642 22.0681C20.7386 22.1672 20.8625 22.2415 20.9863 22.2663C21.1102 22.3158 21.2341 22.3158 21.358 22.2415C21.4571 22.192 21.5315 22.0929 21.6058 21.9938C21.6554 21.8948 21.7049 21.8205 21.7297 21.7709C21.7545 21.7214 21.7793 21.6718 21.7793 21.6718C21.7793 21.6718 21.7793 21.8205 21.7049 22.0434C21.6554 22.1424 21.581 22.291 21.4571 22.3653C21.3828 22.4149 21.3085 22.4396 21.2094 22.4396C21.1102 22.4396 21.0359 22.4396 20.9616 22.4149C20.8129 22.3653 20.6642 22.2663 20.5651 22.1424C20.466 22.0186 20.466 21.87 20.466 21.7462C20.4412 21.5232 20.5156 21.3746 20.5156 21.3746Z" fill="#384259"/>
</g>
<path id="Vector_36" d="M20.0213 21.87L19.6992 23.0836L20.393 22.8607L20.0213 21.87Z" fill="#E5B391"/>
<path id="Vector_37" d="M17.7891 23.4551C17.7891 23.4551 19.1023 25.0155 20.7377 23.9009L17.7891 23.4551Z" fill="white"/>
<g id="Group_27">
<path id="Vector_38" d="M17.6172 19.5418C17.6172 19.5418 17.7411 19.4427 17.9889 19.3437C18.0384 19.3189 18.1128 19.2941 18.1871 19.2941C18.2614 19.2694 18.3358 19.2446 18.4101 19.2446C18.5588 19.2198 18.7322 19.2198 18.9057 19.2446C19.0791 19.2694 19.2526 19.3189 19.4013 19.3684C19.5499 19.4427 19.6738 19.5418 19.7729 19.6409C19.8225 19.6904 19.8473 19.7399 19.8721 19.7895C19.8968 19.839 19.9216 19.8886 19.9216 19.9133C19.9464 19.9876 19.9712 20.0124 19.9712 20.0124C19.9712 20.0124 19.9216 19.9876 19.8721 19.9629C19.8473 19.9381 19.7977 19.9133 19.7729 19.8886C19.7234 19.8638 19.6738 19.839 19.6243 19.8142C19.5747 19.7895 19.5252 19.7647 19.4508 19.7399C19.4013 19.7152 19.3269 19.7152 19.2526 19.6904C19.1287 19.6656 18.98 19.6409 18.8313 19.6161C18.6827 19.5913 18.534 19.5913 18.3853 19.5913C18.2367 19.5913 18.1128 19.5666 17.9889 19.5666C17.7906 19.5666 17.6172 19.5418 17.6172 19.5418Z" fill="#384259"/>
</g>
<g id="Group_28">
<path id="Vector_39" d="M20.543 20.2105C20.543 20.2105 20.6421 20.0867 20.8155 20.0124C20.9146 19.9629 21.0385 19.9381 21.1624 19.9133C21.2863 19.8886 21.435 19.8886 21.5837 19.9133C21.7323 19.9381 21.8562 19.9876 21.9801 20.0867C22.0297 20.1115 22.0793 20.161 22.1288 20.2105C22.1784 20.2601 22.2031 20.3096 22.2279 20.3344C22.3023 20.4087 22.327 20.5077 22.327 20.5573C22.3518 20.6068 22.3518 20.6564 22.3518 20.6564C22.3518 20.6564 22.327 20.6316 22.2527 20.6068C22.2279 20.5821 22.2031 20.5821 22.1536 20.5573C22.1288 20.5325 22.0793 20.5325 22.0297 20.5077C21.9554 20.4582 21.8562 20.4334 21.7571 20.3839C21.658 20.3591 21.5589 20.3096 21.435 20.3096C21.212 20.2601 20.989 20.2601 20.7908 20.2353C20.6916 20.2105 20.543 20.2105 20.543 20.2105Z" fill="#384259"/>
</g>
</g>
</g>
<g id="Group_29">
<g id="Group_30">
<g id="Group_31">
<path id="Vector_40" d="M13.4834 72.3715L15.6639 79.5294C15.6639 79.5294 9.32057 81.8328 17.0515 79.8762C17.0515 79.8762 17.9684 73.8823 17.9684 71.3313C17.9684 68.8049 13.4834 72.3715 13.4834 72.3715Z" fill="#FFD3B5"/>
<path id="Vector_41" d="M17.7933 74.1053C17.8924 73.0402 17.9668 72.0495 17.9668 71.3313C17.9668 68.8049 13.457 72.3715 13.457 72.3715L13.8039 73.4861C15.1172 73.808 16.4553 73.9814 17.7933 74.1053Z" fill="#E8B18B"/>
<path id="Vector_42" d="M15.0185 79.7523C15.0185 79.7523 12.9371 80.4953 13.0857 80.6935C13.2344 80.8916 17.0751 80.0495 17.0751 80.0495L17.0999 79.6285C17.0999 79.6037 14.2751 80.2229 15.0185 79.7523Z" fill="white"/>
</g>
<g id="Group_32">
<path id="Vector_43" d="M28.6456 71.8266L27.704 79.2322C27.704 79.2322 34.3447 80.4211 26.3908 79.8019C26.3908 79.8019 24.458 74.0557 24.0368 71.5542C23.6155 69.0774 28.6456 71.8266 28.6456 71.8266Z" fill="#FFD3B5"/>
<path id="Vector_44" d="M24.7045 74.2787C24.4319 73.2633 24.1841 72.2973 24.0602 71.579C23.639 69.0775 28.6691 71.8267 28.6691 71.8267L28.5204 72.966C27.2814 73.5357 25.993 73.932 24.7045 74.2787Z" fill="#E8B18B"/>
<path id="Vector_45" d="M28.373 79.3808C28.373 79.3808 30.5536 79.7523 30.4545 79.9752C30.3553 80.1981 26.4155 80 26.4155 80L26.3164 79.5789C26.3164 79.5789 29.2155 79.7028 28.373 79.3808Z" fill="white"/>
</g>
</g>
<g id="Group_33">
<path id="Vector_46" d="M12.9862 39.7275C12.9862 39.7275 8.03042 44.9288 8.60033 53.9195C9.17024 62.9102 11.7225 72.7182 11.7225 72.7182C11.7225 72.7182 14.7207 73.6347 19.5773 72.9412L19.8003 53.1021C19.8003 53.1021 21.9809 70.3901 23.2694 72.9412C23.2694 72.9412 28.349 72.9412 30.6534 72.0247C30.6534 72.0247 29.2658 46.8854 22.7986 39.7275C16.3313 32.5944 12.9862 39.7275 12.9862 39.7275Z" fill="#F73859"/>
<path id="Vector_47" opacity="0.3" d="M27.7311 51.4427C25.1789 52.5077 22.5771 53.4241 19.9258 54.1176C20.4214 57.8575 22.1806 70.7863 23.2461 72.9411C23.2461 72.9411 28.3258 72.9411 30.6302 72.0247C30.6302 72.0247 30.0355 60.9783 27.7311 51.4427Z" fill="#141923"/>
<path id="Vector_48" opacity="0.3" d="M25.1265 43.4675C24.4327 41.9814 23.6646 40.6935 22.7973 39.7523C16.33 32.5944 12.9849 39.7523 12.9849 39.7523C12.9849 39.7523 12.4893 40.2725 11.8203 41.2632C16.2309 42.1548 20.6663 42.8731 25.1265 43.4675Z" fill="#141923"/>
</g>
</g>
<g id="Group_34">
<g id="Group_35">
<path id="Vector_49" d="M23.0208 29.0031C22.4757 28.0619 21.1872 28.0372 20.1217 28.0619C19.4031 28.7059 18.5854 29.226 17.6934 29.3746C16.1819 29.6223 14.819 29.0774 13.6049 28.2105C12.8863 28.3839 12.1429 28.3839 11.6969 28.7306C10.6562 29.5975 11.3996 32.0248 12.8615 34.774C14.2987 37.548 23.888 34.6006 23.888 34.6006C23.888 34.6006 23.888 30.5139 23.0208 29.0031Z" fill="white"/>
<path id="Vector_50" d="M11.5977 33.9814C11.5977 33.9814 12.4154 36.9783 13.5056 39.9752L23.318 39.8514C23.318 39.8514 24.3092 33.8576 23.7145 31.6037C23.1446 29.3498 11.5977 33.9814 11.5977 33.9814Z" fill="white"/>
<path id="Vector_51" opacity="0.16" d="M12.3906 33.6594C11.895 33.8576 11.5977 33.9566 11.5977 33.9566C11.5977 33.9566 12.4154 36.9535 13.5056 39.9504L23.318 39.8266C23.318 39.8266 23.4915 38.7368 23.6649 37.3251C19.7003 36.8297 15.6118 36.0619 12.3906 33.6594Z" fill="#141923"/>
</g>
<g id="Group_36">
<g id="Group_37">
<path id="Vector_52" d="M51.4674 54.0186C51.4674 54.7369 50.8727 55.3313 50.1541 55.3313H19.032C18.3134 55.3313 17.7188 54.7369 17.7188 54.0186V35.6409C17.7188 34.9226 18.3134 34.3282 19.032 34.3282H50.1541C50.8727 34.3282 51.4674 34.9226 51.4674 35.6409V54.0186Z" fill="#C4EDDE"/>
<path id="Vector_53" d="M51.4674 39.2322H17.7188V45.6966H51.4674V39.2322Z" fill="#384259"/>
<g id="Group_38" opacity="0.8">
<path id="Vector_54" d="M41.2335 52.9041C42.7388 52.9041 43.9591 51.6843 43.9591 50.1796C43.9591 48.6749 42.7388 47.4551 41.2335 47.4551C39.7281 47.4551 38.5078 48.6749 38.5078 50.1796C38.5078 51.6843 39.7281 52.9041 41.2335 52.9041Z" fill="white"/>
<path id="Vector_55" opacity="0.6" d="M44.628 52.9041C46.1333 52.9041 47.3537 51.6843 47.3537 50.1796C47.3537 48.6749 46.1333 47.4551 44.628 47.4551C43.1227 47.4551 41.9023 48.6749 41.9023 50.1796C41.9023 51.6843 43.1227 52.9041 44.628 52.9041Z" fill="white"/>
</g>
<path id="Vector_56" opacity="0.6" d="M34.7174 48.3715C34.7174 48.7183 34.4448 48.9907 34.0979 48.9907H20.5687C20.2218 48.9907 19.9492 48.7183 19.9492 48.3715C19.9492 48.0248 20.2218 47.7523 20.5687 47.7523H34.0979C34.4448 47.7523 34.7174 48.0248 34.7174 48.3715Z" fill="white"/>
<path id="Vector_57" opacity="0.6" d="M34.7174 50.6501C34.7174 50.9969 34.4448 51.2693 34.0979 51.2693H20.5687C20.2218 51.2693 19.9492 50.9969 19.9492 50.6501C19.9492 50.3034 20.2218 50.0309 20.5687 50.0309H34.0979C34.4448 50.0309 34.7174 50.3034 34.7174 50.6501Z" fill="white"/>
</g>
<g id="Group_39">
<path id="Vector_58" d="M31.9414 34.2539C31.9414 34.2539 32.2883 33.8576 33.1556 33.9319C34.0228 34.031 34.4688 33.9814 34.3945 34.3777C34.2954 34.7492 34.1467 37.1022 33.9237 34.4768C33.9237 34.4768 33.329 37.7461 33.4034 34.4768C33.4034 34.4768 32.4865 37.548 32.9078 34.3777C32.9078 34.3777 32.2388 37.3003 32.4122 34.3529H31.9414V34.2539Z" fill="#FFD3B5"/>
</g>
</g>
<g id="Group_40">
<g id="Group_41">
<path id="Vector_59" d="M8.84728 32.3467C8.84728 32.3467 5.8986 37.87 6.66674 40.3715C7.41011 42.8483 16.5782 41.1145 16.5782 41.1145L16.6278 39.2074L10.6313 38.6378C10.6313 38.6378 12.1429 35.1703 12.8119 33.9071C13.5057 32.644 8.84728 32.3467 8.84728 32.3467Z" fill="#FFD3B5"/>
<path id="Vector_60" d="M12.1659 35.2198C12.4137 34.6997 12.6367 34.2291 12.8102 33.9071C13.504 32.644 8.82078 32.3467 8.82078 32.3467C8.82078 32.3467 8.72167 32.5696 8.52344 32.9164C9.56415 33.9566 10.8031 34.7244 12.1659 35.2198Z" fill="#E5B391"/>
<path id="Vector_61" d="M16.6282 39.2074C16.6282 39.2074 21.4601 39.1827 18.2141 39.5542C18.2141 39.5542 21.6583 39.7276 18.1893 39.9505C18.1893 39.9505 21.4601 40 18.1645 40.4954C18.1645 40.4954 21.2371 40.3715 18.0159 40.9164C14.7946 41.4613 13.7539 41.4861 13.7539 41.4861L16.6282 39.2074Z" fill="#FFD3B5"/>
<path id="Vector_62" d="M16.4297 39.356C16.504 39.356 18.6846 37.7956 17.2722 39.2817L16.4297 39.356Z" fill="#FFD3B5"/>
</g>
<g id="Group_42">
<path id="Vector_63" d="M13.6292 28.1858C13.6292 28.1858 11.3743 28.0372 9.93717 30.1672C8.5 32.2972 8.5 32.5201 8.5 32.5201C8.5 32.5201 10.9779 34.774 12.6628 34.6006L14.1 32.4211L13.6292 28.1858Z" fill="white"/>
</g>
</g>
</g>
</g>
</g>
<g id="Group_43">
<g id="Group_44">
<path id="Vector_64" d="M42.6107 26.7224C43.0629 23.4568 40.781 20.4431 37.5139 19.9912C34.2469 19.5392 31.2318 21.8201 30.7797 25.0857C30.3275 28.3513 32.6094 31.365 35.8765 31.817C39.1436 32.269 42.1586 29.9881 42.6107 26.7224Z" fill="#E5B445"/>
<path id="Vector_65" d="M39.1843 30.6994C41.8822 28.8032 42.5313 25.0799 40.6343 22.3833C38.7372 19.6867 35.0123 19.0378 32.3145 20.934C29.6167 22.8302 28.9675 26.5535 30.8646 29.2501C32.7616 31.9467 36.4865 32.5956 39.1843 30.6994Z" fill="#FFDE7D"/>
<path id="Vector_66" d="M36.0471 30.8035C38.8068 30.6419 40.9128 28.2747 40.7512 25.5163C40.5895 22.7578 38.2213 20.6527 35.4616 20.8143C32.702 20.9759 30.5959 23.343 30.7576 26.1015C30.9192 28.8599 33.2875 30.9651 36.0471 30.8035Z" fill="#FCD060"/>
<g id="Group_45">
<g id="Clip path group_4">
<mask id="mask3_841_115" style="mask-type:luminance" maskUnits="userSpaceOnUse" x="29" y="20" width="11" height="11">
<g id="SVGID_8_">
<path id="Vector_67" d="M37.406 30.0578C39.8102 28.695 40.6536 25.6415 39.2896 23.2378C37.9257 20.8341 34.8709 19.9902 32.4666 21.3531C30.0623 22.7159 29.219 25.7693 30.583 28.1731C31.9469 30.5768 35.0017 31.4206 37.406 30.0578Z" fill="white"/>
</g>
</mask>
<g mask="url(#mask3_841_115)">
<path id="Vector_68" d="M31.356 16.9207L29 18.0797L38.8486 38.0795L41.2046 36.9205L31.356 16.9207Z" fill="#FFDE7D"/>
</g>
</g>
<g id="Clip path group_5">
<mask id="mask4_841_115" style="mask-type:luminance" maskUnits="userSpaceOnUse" x="30" y="21" width="11" height="11">
<g id="SVGID_8__2">
<path id="Vector_69" d="M38.1755 30.9987C40.5798 29.6358 41.4231 26.5824 40.0592 24.1787C38.6952 21.775 35.6404 20.9311 33.2361 22.294C30.8319 23.6568 29.9885 26.7102 31.3525 29.114C32.7164 31.5177 35.7712 32.3615 38.1755 30.9987Z" fill="white"/>
</g>
</mask>
<g mask="url(#mask4_841_115)">
<path id="Vector_70" d="M33.145 16.0624L32.0781 16.5873L41.9265 36.5869L42.9933 36.0621L33.145 16.0624Z" fill="#FFDE7D"/>
</g>
</g>
</g>
<path id="Vector_71" d="M31.3183 25.387C31.5661 22.7368 33.8705 20.7554 36.5218 20.8793C36.4227 20.8545 36.3484 20.8545 36.2493 20.8545C33.4988 20.582 31.0457 22.613 30.798 25.3622C30.5254 28.1115 32.5572 30.5635 35.3077 30.8112C35.4068 30.8112 35.4811 30.8359 35.5803 30.8359C32.9289 30.4149 31.0705 28.0372 31.3183 25.387Z" fill="#E5B445"/>
</g>
<g id="Group_46">
<path id="Vector_72" d="M46.3141 19.0577C49.5343 18.3453 51.567 15.1585 50.8543 11.9397C50.1416 8.72086 46.9533 6.68901 43.7331 7.40141C40.5129 8.1138 38.4801 11.3007 39.1928 14.5195C39.9055 17.7383 43.0938 19.7701 46.3141 19.0577Z" fill="#E5B445"/>
<path id="Vector_73" d="M49.8738 16C51.0799 12.9319 49.5693 9.46731 46.4998 8.26174C43.4302 7.05617 39.9642 8.5661 38.7581 11.6343C37.552 14.7024 39.0625 18.1669 42.1321 19.3725C45.2016 20.5781 48.6676 19.0682 49.8738 16Z" fill="#FFDE7D"/>
<path id="Vector_74" d="M48.4055 16.7084C50.0033 14.4537 49.4699 11.3312 47.2142 9.73409C44.9585 8.137 41.8346 8.67011 40.2368 10.9248C38.639 13.1795 39.1724 16.3021 41.4281 17.8991C43.6838 19.4962 46.8077 18.9631 48.4055 16.7084Z" fill="#FCD060"/>
<g id="Group_47">
<g id="Clip path group_6">
<mask id="mask5_841_115" style="mask-type:luminance" maskUnits="userSpaceOnUse" x="38" y="10" width="11" height="11">
<g id="SVGID_10_">
<path id="Vector_75" d="M47.3002 12.6874C45.6401 10.4784 42.5024 10.0332 40.2919 11.6931C38.0813 13.353 37.635 16.4893 39.2951 18.6983C40.9551 20.9073 44.0928 21.3524 46.3033 19.6925C48.5139 18.0327 48.9602 14.8964 47.3002 12.6874Z" fill="white"/>
</g>
</mask>
<g mask="url(#mask5_841_115)">
<path id="Vector_76" d="M34.8803 10.8011L34.0781 13.3019L55.315 20.1067L56.1171 17.6059L34.8803 10.8011Z" fill="#FFDE7D"/>
</g>
</g>
<g id="Clip path group_7">
<mask id="mask6_841_115" style="mask-type:luminance" maskUnits="userSpaceOnUse" x="41" y="9" width="11" height="11">
<g id="SVGID_10__2">
<path id="Vector_77" d="M50.3002 11.6934C48.6401 9.48443 45.5024 9.03928 43.2919 10.6991C41.0813 12.359 40.635 15.4953 42.2951 17.7043C43.9551 19.9133 47.0928 20.3585 49.3033 18.6986C51.5139 17.0387 51.9602 13.9024 50.3002 11.6934Z" fill="white"/>
</g>
</mask>
<g mask="url(#mask6_841_115)">
<path id="Vector_78" d="M35.4804 8.93397L35.1172 10.0665L56.3542 16.8716L56.7174 15.7391L35.4804 8.93397Z" fill="#FFDE7D"/>
</g>
</g>
</g>
<path id="Vector_79" d="M40.9352 16.7183C39.2007 14.6873 39.3741 11.6657 41.2821 9.8576C41.2078 9.90714 41.1334 9.95668 41.0839 10.031C38.9777 11.8143 38.7299 14.9845 40.5387 17.0898C42.3228 19.1951 45.4945 19.4427 47.6007 17.6347C47.675 17.5852 47.7246 17.5109 47.7989 17.4613C45.6679 19.0465 42.6697 18.7492 40.9352 16.7183Z" fill="#E5B445"/>
</g>
<g id="Group_48">
<path id="Vector_80" d="M65.0336 15.8106C67.7242 13.9039 68.3589 10.1779 66.4513 7.48857C64.5437 4.7992 60.8162 4.16476 58.1256 6.07152C55.435 7.97828 54.8003 11.7042 56.7079 14.3936C58.6155 17.0829 62.3431 17.7174 65.0336 15.8106Z" fill="#E5B445"/>
<path id="Vector_81" d="M66.1658 13.1022C67.741 10.2058 66.6689 6.58147 63.7712 5.00701C60.8735 3.43255 57.2475 4.50419 55.6724 7.40059C54.0972 10.297 55.1693 13.9213 58.067 15.4958C60.9647 17.0703 64.5907 15.9986 66.1658 13.1022Z" fill="#FFDE7D"/>
<path id="Vector_82" d="M65.918 10.4526C66.0267 7.6917 63.8756 5.36551 61.1134 5.25693C58.3513 5.14836 56.024 7.29852 55.9154 10.0594C55.8068 12.8204 57.9579 15.1465 60.7201 15.2551C63.4822 15.3637 65.8094 13.2135 65.918 10.4526Z" fill="#FCD060"/>
<g id="Group_49">
<g id="Clip path group_8">
<mask id="mask7_841_115" style="mask-type:luminance" maskUnits="userSpaceOnUse" x="53" y="4" width="11" height="11">
<g id="SVGID_12_">
<path id="Vector_83" d="M60.3656 4.58721C57.7223 3.78043 54.9246 5.2688 54.1168 7.9116C53.309 10.5544 54.7971 13.3508 57.4404 14.1576C60.0837 14.9644 62.8814 13.476 63.6892 10.8332C64.497 8.19044 63.0089 5.394 60.3656 4.58721Z" fill="white"/>
</g>
</mask>
<g mask="url(#mask7_841_115)">
<path id="Vector_84" d="M60.9062 0.00313816L55.2344 21.561L57.7738 22.2284L63.4456 0.670525L60.9062 0.00313816Z" fill="#FFDE7D"/>
</g>
</g>
<g id="Clip path group_9">
<mask id="mask8_841_115" style="mask-type:luminance" maskUnits="userSpaceOnUse" x="55" y="7" width="11" height="11">
<g id="SVGID_12__2">
<path id="Vector_85" d="M61.6341 7.60165C58.9908 6.79514 56.1933 8.28375 55.3858 10.9266C54.5783 13.5694 56.0666 16.3656 58.7099 17.1721C61.3532 17.9786 64.1507 16.49 64.9582 13.8472C65.7657 11.2044 64.2775 8.40816 61.6341 7.60165Z" fill="white"/>
</g>
</mask>
<g mask="url(#mask8_841_115)">
<path id="Vector_86" d="M64.1927 0.885414L58.5234 22.4432L59.6733 22.7453L65.3426 1.18751L64.1927 0.885414Z" fill="#FFDE7D"/>
</g>
</g>
</g>
<path id="Vector_87" d="M57.8538 7.03406C59.7865 5.20125 62.8095 5.20125 64.7423 7.03406C64.6927 6.95976 64.6184 6.91023 64.5688 6.83592C62.6609 4.82973 59.4892 4.75543 57.4821 6.66255C55.475 8.56967 55.4007 11.7399 57.3087 13.7461C57.383 13.8204 57.4326 13.87 57.5069 13.9443C55.7724 11.8886 55.8963 8.86688 57.8538 7.03406Z" fill="#E5B445"/>
</g>
<g id="Group_50">
<path id="Vector_88" d="M76.6473 25.6151C79.8639 24.8866 81.8806 21.6895 81.1517 18.4744C80.4228 15.2592 77.2244 13.2434 74.0078 13.9719C70.7912 14.7005 68.7745 17.8975 69.5033 21.1127C70.2322 24.3279 73.4307 26.3437 76.6473 25.6151Z" fill="#E5B445"/>
<path id="Vector_89" d="M79.1245 23.1172C81.2379 20.5864 80.8986 16.8223 78.3667 14.7098C75.8347 12.5973 72.069 12.9364 69.9556 15.4673C67.8422 17.9981 68.1814 21.7622 70.7134 23.8746C73.2453 25.9871 77.0111 25.648 79.1245 23.1172Z" fill="#FFDE7D"/>
<path id="Vector_90" d="M76.1049 24.0428C78.7291 23.1743 80.1521 20.3439 79.2833 17.7209C78.4144 15.0978 75.5828 13.6755 72.9586 14.5439C70.3344 15.4124 68.9114 18.2428 69.7802 20.8658C70.649 23.4889 73.4807 24.9113 76.1049 24.0428Z" fill="#FCD060"/>
<g id="Group_51">
<g id="Clip path group_10">
<mask id="mask9_841_115" style="mask-type:luminance" maskUnits="userSpaceOnUse" x="66" y="14" width="12" height="11">
<g id="SVGID_14_">
<path id="Vector_91" d="M76.7718 17.649C75.9338 15.0159 73.1191 13.5605 70.4849 14.3981C67.8507 15.2357 66.3946 18.0492 67.2327 20.6822C68.0707 23.3153 70.8854 24.7708 73.5196 23.9331C76.1538 23.0955 77.6099 20.282 76.7718 17.649Z" fill="white"/>
</g>
</mask>
<g mask="url(#mask9_841_115)">
<path id="Vector_92" d="M72.0195 9.35805L71.7578 31.6469L74.384 31.6776L74.6456 9.38882L72.0195 9.35805Z" fill="#FFDE7D"/>
</g>
</g>
<g id="Clip path group_11">
<mask id="mask10_841_115" style="mask-type:luminance" maskUnits="userSpaceOnUse" x="69" y="16" width="11" height="11">
<g id="SVGID_14__2">
<path id="Vector_93" d="M79.389 20.3599C78.551 17.7269 75.7362 16.2714 73.1021 17.109C70.4679 17.9466 69.0118 20.7601 69.8498 23.3932C70.6878 26.0262 73.5026 27.4817 76.1368 26.6441C78.771 25.8065 80.227 22.9929 79.389 20.3599Z" fill="white"/>
</g>
</mask>
<g mask="url(#mask10_841_115)">
<path id="Vector_94" d="M75.4139 9.40304L75.1523 31.6918L76.3415 31.7058L76.6031 9.41697L75.4139 9.40304Z" fill="#FFDE7D"/>
</g>
</g>
</g>
<path id="Vector_95" d="M70.7659 16.8916C72.2031 14.6378 75.1269 13.9195 77.4314 15.2074C77.357 15.1579 77.2827 15.1083 77.2084 15.0588C74.8792 13.5727 71.7818 14.2662 70.2951 16.5944C68.8084 18.9226 69.5022 22.0186 71.8314 23.5046C71.9057 23.5542 71.98 23.6037 72.0544 23.6532C69.9234 22.1176 69.3287 19.1455 70.7659 16.8916Z" fill="#E5B445"/>
</g>
<g id="Group_52">
<path id="Vector_96" d="M85.6841 38.5394C88.3073 36.5413 88.8135 32.7959 86.8145 30.1738C84.8155 27.5517 81.0685 27.0458 78.4452 29.0438C75.8219 31.0419 75.3158 34.7873 77.3147 37.4095C79.3137 40.0316 83.0608 40.5375 85.6841 38.5394Z" fill="#E5B445"/>
<path id="Vector_97" d="M87.1539 36.3116C88.1493 33.1686 86.4071 29.8142 83.2628 28.8193C80.1184 27.8244 76.7625 29.5657 75.7671 32.7087C74.7717 35.8517 76.5139 39.2061 79.6582 40.2011C82.8026 41.196 86.1585 39.4546 87.1539 36.3116Z" fill="#FFDE7D"/>
<path id="Vector_98" d="M81.8614 39.489C84.6171 39.2721 86.6753 36.8633 86.4583 34.1087C86.2414 31.3542 83.8315 29.2969 81.0757 29.5138C78.3199 29.7306 76.2618 32.1395 76.4788 34.894C76.6957 37.6486 79.1056 39.7058 81.8614 39.489Z" fill="#FCD060"/>
<g id="Group_53">
<g id="Clip path group_12">
<mask id="mask11_841_115" style="mask-type:luminance" maskUnits="userSpaceOnUse" x="75" y="31" width="11" height="11">
<g id="SVGID_16_">
<path id="Vector_99" d="M85.9052 37.1086C86.0589 34.3495 83.9463 31.9887 81.1865 31.8355C78.4267 31.6824 76.0649 33.7949 75.9111 36.554C75.7574 39.3131 77.8701 41.6739 80.6298 41.827C83.3896 41.9801 85.7515 39.8676 85.9052 37.1086Z" fill="white"/>
</g>
</mask>
<g mask="url(#mask11_841_115)">
<path id="Vector_100" d="M71.6482 33.2059L71.2969 35.8083L93.3969 38.788L93.7482 36.1857L71.6482 33.2059Z" fill="#FFDE7D"/>
</g>
</g>
<g id="Clip path group_13">
<mask id="mask12_841_115" style="mask-type:luminance" maskUnits="userSpaceOnUse" x="78" y="29" width="11" height="11">
<g id="SVGID_16__2">
<path id="Vector_101" d="M88.8505 35.1628C89.0042 32.4037 86.8916 30.0429 84.1318 29.8897C81.372 29.7366 79.0102 31.8491 78.8564 34.6082C78.7027 37.3673 80.8154 39.7281 83.5751 39.8812C86.3349 40.0343 88.6968 37.9218 88.8505 35.1628Z" fill="white"/>
</g>
</mask>
<g mask="url(#mask12_841_115)">
<path id="Vector_102" d="M71.8935 31.2461L71.7344 32.4246L93.8345 35.4046L93.9936 34.2261L71.8935 31.2461Z" fill="#FFDE7D"/>
</g>
</g>
</g>
<path id="Vector_103" d="M78.6462 37.969C76.5896 36.2848 76.2179 33.2631 77.7789 31.1331C77.7294 31.2074 77.6551 31.257 77.6055 31.3313C75.8462 33.4613 76.1683 36.6068 78.2993 38.3653C80.4303 40.1238 83.5772 39.8019 85.3365 37.6718C85.386 37.5975 85.4604 37.5232 85.5099 37.4489C83.7258 39.4303 80.7028 39.6532 78.6462 37.969Z" fill="#E5B445"/>
</g>
<g id="Group_54">
<path id="Vector_104" d="M92.088 50.913C93.273 47.8366 91.7387 44.3824 88.6609 43.198C85.5831 42.0135 82.1275 43.5472 80.9425 46.6236C79.7575 49.7 81.2919 53.1541 84.3696 54.3386C87.4474 55.5231 90.9031 53.9893 92.088 50.913Z" fill="#E5B445"/>
<path id="Vector_105" d="M80.0366 51.1703C81.1764 54.2663 84.6207 55.8514 87.718 54.6873C90.8154 53.548 92.4012 50.1053 91.2366 47.0093C90.0968 43.9133 86.6525 42.3282 83.5552 43.4923C80.4578 44.6564 78.8968 48.0743 80.0366 51.1703Z" fill="#FFDE7D"/>
<path id="Vector_106" d="M80.9502 50.8483C81.9166 53.4489 84.7909 54.7616 87.3927 53.7957C89.9945 52.8297 91.3077 49.9567 90.3414 47.3561C89.375 44.7554 86.5007 43.4427 83.8989 44.4087C81.2971 45.3746 79.9838 48.2477 80.9502 50.8483Z" fill="#FCD060"/>
<g id="Group_55">
<g id="Clip path group_14">
<mask id="mask13_841_115" style="mask-type:luminance" maskUnits="userSpaceOnUse" x="79" y="44" width="11" height="11">
<g id="SVGID_18_">
<path id="Vector_107" d="M82.7842 54.6954C85.4303 55.5323 88.2333 54.0732 89.0708 51.4282C89.9083 48.7832 88.4489 45.9815 85.8028 45.1447C83.1567 44.3078 80.3538 45.7669 79.5162 48.4119C78.6787 51.0569 80.1381 53.8586 82.7842 54.6954Z" fill="white"/>
</g>
</mask>
<g mask="url(#mask13_841_115)">
<path id="Vector_108" d="M77.822 43.0095L76.207 45.0803L93.7956 58.7846L95.4105 56.7138L77.822 43.0095Z" fill="#FFDE7D"/>
</g>
</g>
<g id="Clip path group_15">
<mask id="mask14_841_115" style="mask-type:luminance" maskUnits="userSpaceOnUse" x="81" y="45" width="11" height="11">
<g id="SVGID_18__2">
<path id="Vector_109" d="M85.0889 55.1801C87.735 56.017 90.538 54.5579 91.3755 51.9129C92.213 49.2678 90.7536 46.4662 88.1075 45.6293C85.4614 44.7925 82.6585 46.2516 81.8209 48.8966C80.9834 51.5416 82.4428 54.3432 85.0889 55.1801Z" fill="white"/>
</g>
</mask>
<g mask="url(#mask14_841_115)">
<path id="Vector_110" d="M79.0243 41.4423L78.293 42.3801L95.8816 56.0845L96.6129 55.1467L79.0243 41.4423Z" fill="#FFDE7D"/>
</g>
</g>
</g>
<path id="Vector_111" d="M81.4458 50.6501C80.5042 48.1486 81.7184 45.3746 84.1467 44.3344C84.0723 44.3591 83.9732 44.3839 83.8989 44.4334C81.2971 45.3994 79.9838 48.2724 80.9502 50.873C81.9166 53.4737 84.7909 54.7864 87.3927 53.8204C87.467 53.7957 87.5661 53.7461 87.6405 53.7213C85.113 54.4644 82.3874 53.1517 81.4458 50.6501Z" fill="#E5B445"/>
</g>
<g id="Group_56">
<g id="Group_57">
<path id="Vector_112" d="M94.4796 63.5789L80.5787 61.5232C80.4548 61.8452 80.3309 62.1672 80.207 62.4891L94.3557 64.5944C94.3557 64.5696 94.3557 64.5201 94.3557 64.4953C94.3805 64.2972 94.4548 64.1734 94.5787 64.0743C94.5539 63.9009 94.5044 63.7275 94.4796 63.5789Z" fill="#151D28"/>
<path id="Vector_113" d="M96.9565 64.4458C96.907 64.7183 96.6592 64.9164 96.3866 64.8669L78.6203 62.2415C78.3477 62.192 78.1495 61.9443 78.199 61.6718C78.2486 61.3994 78.4964 61.2012 78.7689 61.2508L96.5353 63.8762C96.8079 63.9257 96.9813 64.1734 96.9565 64.4458Z" fill="#384259"/>
</g>
<g id="Group_58">
<g id="Clip path group_16">
<mask id="mask15_841_115" style="mask-type:luminance" maskUnits="userSpaceOnUse" x="79" y="52" width="19" height="13">
<g id="SVGID_20_">
<path id="Vector_114" d="M79.7617 62.4891L95.3723 64.6439L97.7263 53.3003L80.0095 52.5573L79.7617 62.4891Z" fill="white"/>
</g>
</mask>
<g mask="url(#mask15_841_115)">
<g id="Group_59">
<path id="Vector_115" d="M93.7869 64.9164C94.332 62.2415 92.994 59.4675 90.417 58.3034C87.4187 56.9412 83.8754 58.2539 82.5125 61.2755C82.24 61.8947 82.0665 62.5387 81.9922 63.1826C85.9816 63.1579 89.9214 63.8761 93.7869 64.9164Z" fill="#E5B445"/>
<path id="Vector_116" d="M92.8963 64.6687C93.5157 61.969 92.1777 59.0959 89.5511 57.8823C86.5529 56.5201 83.0095 57.8328 81.6467 60.8544C81.2998 61.5975 81.1263 62.39 81.1016 63.1578C85.0909 63.0588 89.0308 63.7027 92.8963 64.6687Z" fill="#FFDE7D"/>
<path id="Vector_117" d="M91.9557 64.4458C92.4761 62.1919 91.3362 59.7894 89.1557 58.7987C86.6283 57.6594 83.6796 58.7739 82.5398 61.2755C82.2672 61.8947 82.1185 62.5386 82.0938 63.1578C85.4141 63.1578 88.7097 63.678 91.9557 64.4458Z" fill="#FCD060"/>
<g id="Group_60">
<g id="Clip path group_17">
<mask id="mask16_841_115" style="mask-type:luminance" maskUnits="userSpaceOnUse" x="82" y="58" width="11" height="11">
<g id="SVGID_22_">
<path id="Vector_118" d="M92.0804 63.3647C92.091 60.6016 89.8586 58.3531 87.0942 58.3425C84.3299 58.332 82.0804 60.5634 82.0699 63.3265C82.0593 66.0896 84.2917 68.3381 87.0561 68.3487C89.8204 68.3592 92.0699 66.1278 92.0804 63.3647Z" fill="white"/>
</g>
</mask>
<g mask="url(#mask16_841_115)">
<path id="Vector_119" d="M87.0973 63.5294L85.8336 53.5232L83.207 53.8452L84.3964 63.2569C85.3132 63.3065 86.2053 63.4055 87.0973 63.5294Z" fill="#FFDE7D"/>
</g>
</g>
<g id="Clip path group_18">
<mask id="mask17_841_115" style="mask-type:luminance" maskUnits="userSpaceOnUse" x="82" y="58" width="11" height="11">
<g id="SVGID_22__2">
<path id="Vector_120" d="M92.0804 63.3647C92.091 60.6016 89.8586 58.3531 87.0942 58.3425C84.3299 58.332 82.0804 60.5634 82.0699 63.3265C82.0593 66.0896 84.2917 68.3381 87.0561 68.3487C89.8204 68.3592 92.0699 66.1278 92.0804 63.3647Z" fill="white"/>
</g>
</mask>
<g mask="url(#mask17_841_115)">
<path id="Vector_121" d="M89.1277 63.8514L87.7896 53.2755L86.625 53.4241L87.9383 63.6532C88.31 63.7028 88.7064 63.7771 89.1277 63.8514Z" fill="#FFDE7D"/>
</g>
</g>
</g>
<path id="Vector_122" d="M82.5868 63.1579C82.6363 62.5882 82.7602 62.0186 83.008 61.4737C84.123 59.0464 86.923 57.9319 89.3761 58.8978C89.3018 58.8483 89.2275 58.8235 89.1284 58.774C86.6009 57.6347 83.6522 58.7492 82.5124 61.2508C82.2399 61.8699 82.0912 62.5139 82.0664 63.1331C82.2399 63.1579 82.4133 63.1579 82.5868 63.1579Z" fill="#E5B445"/>
</g>
</g>
</g>
</g>
</g>
</g>
<g id="Group_61">
<g id="Group_62">
<path id="Vector_123" d="M48.2695 29.226C48.2695 29.226 50.8713 20.7802 58.6766 21.4241C66.4819 22.0681 69.0837 30.5139 69.0837 36.3591" stroke="white" stroke-width="2" stroke-miterlimit="10"/>
<path id="Vector_124" d="M64.7969 33.6099L72.8004 32.9907L69.3562 39.3808L64.7969 33.6099Z" fill="white"/>
</g>
<g id="Group_63">
<path id="Vector_125" d="M66.8266 70.4148C66.8266 70.4148 63.5558 78.613 55.8248 77.3498C48.0939 76.0866 46.1859 67.4427 46.6567 61.6223" stroke="white" stroke-width="2" stroke-miterlimit="10"/>
<path id="Vector_126" d="M50.6715 64.6935L42.668 64.6687L46.6078 58.6006L50.6715 64.6935Z" fill="white"/>
</g>
</g>
</g>
<defs>
<clipPath id="clip0_841_115">
<rect width="112" height="96" fill="white"/>
</clipPath>
</defs>
</svg>
