<svg width="117" height="81" viewBox="0 0 117 81" fill="none" xmlns="http://www.w3.org/2000/svg">
<g id="Frame" clip-path="url(#clip0_841_358)">
<g id="Group">
<g id="Group_2">
<g id="Group_3">
<path id="Vector" d="M116.715 43.055C116.715 43.055 116.43 44.2863 114.94 44.3889C113.451 44.471 111.003 44.4915 111.003 44.4915L108.963 43.5475L108.188 40.736L110.472 41.7826L116.715 43.055Z" fill="#263238"/>
</g>
<g id="Group_4">
<path id="Vector_2" d="M116.715 43.055C116.715 43.055 117.816 41.2285 115.735 40.0793C113.654 38.9096 110.309 39.8125 110.309 39.8125L110.615 43.2192L116.715 43.055Z" fill="#E8505B"/>
</g>
</g>
<g id="Group_5">
<path id="Vector_3" d="M110.799 80.8769H109.922C107.699 80.8769 105.883 79.0709 105.883 76.8135V63.7616C105.883 61.5247 107.678 59.6982 109.922 59.6982H110.799C113.023 59.6982 114.839 61.5042 114.839 63.7616V76.8135C114.818 79.0504 113.023 80.8769 110.799 80.8769Z" fill="#263238"/>
</g>
<g id="Group_6">
<path id="Vector_4" d="M55.901 80.8769H55.0238C52.8001 80.8769 50.9844 79.0709 50.9844 76.8135V63.7616C50.9844 61.5247 52.7797 59.6982 55.0238 59.6982H55.901C58.1247 59.6982 59.9404 61.5042 59.9404 63.7616V76.8135C59.92 79.0504 58.1247 80.8769 55.901 80.8769Z" fill="#263238"/>
</g>
<g id="Group_7">
<path id="Vector_5" d="M53.5956 72.9759C53.5956 72.9759 50.5355 67.0656 50.4335 60.0676C50.3315 53.0697 51.2495 50.2582 52.8816 48.9037C54.5137 47.5493 56.309 44.5531 56.309 44.5531C56.309 44.5531 58.1655 37.1447 60.736 32.3836C63.0821 28.0329 67.4275 28.4844 67.4275 28.4844C67.4275 28.4844 86.4821 26.7606 98.3963 28.4434C98.3963 28.4434 101.64 28.2176 103.986 31.85C106.332 35.4824 108.944 41.8442 109.576 45.1072C109.576 45.1072 112.371 47.8366 113.187 49.1089C114.003 50.3813 115.452 52.6592 115.268 54.8346C115.084 57.0099 115.186 69.282 112.208 73.3658L53.5956 72.9759Z" fill="#E8505B"/>
</g>
<g id="Group_8">
<path id="Vector_6" d="M58.9805 41.1875C58.9805 41.1875 60.735 32.6709 63.1219 31.2549C65.5088 29.8389 82.6457 29.9004 82.6457 29.9004L99.2521 30.3725C99.2521 30.3725 102.169 30.4545 103.108 32.0347C104.046 33.6149 106.801 41.0438 106.474 41.5979L80.8912 41.8852C80.8912 41.8852 62.8771 42.2136 62.1426 42.0494C61.4286 41.8852 59.1437 42.111 58.9805 41.1875Z" fill="#263238"/>
</g>
<g id="Group_9">
<path id="Vector_7" d="M61.9171 41.1875C61.9171 41.1875 60.3667 40.9617 60.5503 39.2379C60.7135 37.904 62.2844 34.169 62.9984 32.5683C63.2024 32.0963 63.6308 31.7884 64.1409 31.7064C66.3034 31.4191 71.7504 30.5161 81.4409 30.5982C93.804 30.7008 101.352 30.9265 102.046 31.809C102.597 32.5272 104.719 38.2118 104.963 39.0532C105.249 40.0177 103.943 41.0849 102.087 41.1464C100.23 41.208 61.9171 41.1875 61.9171 41.1875Z" fill="#455A64"/>
</g>
<g id="Group_10" opacity="0.4">
<path id="Vector_8" d="M99.4371 60.0882C98.0295 57.4409 94.1533 57.8308 94.1533 57.8308C94.1533 57.8308 74.2418 57.7692 72.1405 57.8308C70.0392 57.8923 69.5088 57.9129 68.2031 59.2673C66.9179 60.6217 62.9805 68.7279 62.9805 68.7279H103.477C103.497 68.7279 101.028 63.0844 99.4371 60.0882Z" fill="black"/>
</g>
<g id="Group_11">
<path id="Vector_9" d="M67.6719 49.8477L68.7123 52.2488C68.7123 52.2488 69.1611 53.1723 70.9564 53.3365C72.3641 53.4596 95.3561 53.4391 95.3561 53.4391C95.3561 53.4391 96.8862 53.5827 97.4778 52.4951C98.0694 51.4279 98.6815 49.8477 98.6815 49.8477H67.6719Z" fill="#263238"/>
</g>
<g id="Group_12">
<g id="Group_13">
<path id="Vector_10" d="M53.5547 52.926C53.5547 52.926 53.5547 50.9354 53.7179 49.7451C53.7791 49.2936 54.6359 47.6929 57.1453 47.4262C57.7981 47.3646 58.3489 47.3235 58.8182 47.303C60.4502 47.262 62.0415 47.9187 63.1432 49.1295C63.49 49.5194 63.8164 49.9709 64.0204 50.5044C64.9181 52.6182 65.3669 55.2245 65.3669 55.2245L53.5547 52.926Z" fill="#EAEAEA"/>
</g>
<g id="Group_14" opacity="0.3">
<path id="Vector_11" d="M53.7389 52.926H53.5553C53.5553 52.926 52.9228 54.8756 54.4121 55.6965C55.4118 56.2506 58.7371 56.7841 60.8792 57.092C62.0829 57.2562 63.2866 56.9278 64.225 56.1685L65.3675 55.245L53.7389 52.926Z" fill="black"/>
</g>
</g>
<g id="Group_15">
<path id="Vector_12" d="M63.918 30.7829C63.918 30.7829 64.4892 28.2997 65.2848 27.4788C66.0805 26.658 67.0189 26.6785 67.5494 26.9658C68.0186 27.2121 68.6918 28.3613 68.6918 28.3613L67.3861 28.4639C67.3861 28.4639 67.1005 27.9919 66.6109 28.1356C66.1417 28.2792 65.8153 29.1411 65.8153 29.1411L65.244 30.5777L63.918 30.7829Z" fill="#E0E0E0"/>
</g>
<g id="Group_16">
<path id="Vector_13" d="M100.477 30.5982C100.477 30.5982 99.9057 28.115 99.1101 27.2942C98.3145 26.4733 97.376 26.4938 96.8456 26.7811C96.3764 27.0274 95.7031 28.1766 95.7031 28.1766L97.0088 28.2792C97.0088 28.2792 97.2944 27.8072 97.784 27.9509C98.2533 28.0945 98.5797 28.9564 98.5797 28.9564L99.1509 30.393L100.477 30.5982Z" fill="#E0E0E0"/>
</g>
<g id="Group_17">
<g id="Group_18">
<path id="Vector_14" d="M97.3767 48.7395C97.3767 48.7601 90.6851 48.8011 82.4227 48.8011C74.1603 48.8011 67.4688 48.7806 67.4688 48.7395C67.4688 48.719 74.1603 48.678 82.4227 48.678C90.6851 48.6985 97.3767 48.719 97.3767 48.7395Z" fill="#263238"/>
</g>
</g>
<g id="Group_19" opacity="0.3">
<path id="Vector_15" d="M53.411 60.9091C53.411 60.9091 53.2886 65.6907 55.9204 65.9369L57.7157 66.1011C58.5521 66.1832 59.3478 65.7933 59.7966 65.075L61.4287 62.4892L53.411 60.9091Z" fill="black"/>
</g>
<g id="Group_20" opacity="0.3">
<path id="Vector_16" d="M51.9219 68.7279L114.002 68.6869C113.655 70.4107 113.084 71.9909 112.207 73.3453L53.5948 72.9759C52.9011 71.5394 52.3707 70.1234 51.9219 68.7279Z" fill="black"/>
</g>
<g id="Group_21">
<g id="Group_22">
<path id="Vector_17" d="M48.7812 43.055C48.7812 43.055 49.0669 44.2863 50.5561 44.3889C52.0454 44.471 54.4935 44.4915 54.4935 44.4915L56.554 43.6091L57.4109 40.7155L55.024 41.7621L48.7812 43.055Z" fill="#263238"/>
</g>
<g id="Group_23">
<path id="Vector_18" d="M48.7797 43.055C48.7797 43.055 47.678 41.2285 49.7589 40.0793C51.8398 38.9096 55.1856 39.8125 55.1856 39.8125L54.8796 43.2192L48.7797 43.055Z" fill="#E8505B"/>
</g>
</g>
<g id="Group_24">
<path id="Vector_19" d="M91.1925 65.0545H74.9125C73.8108 65.0545 72.9336 64.1515 72.9336 63.0639V62.6329C72.9336 61.5247 73.8312 60.6423 74.9125 60.6423H91.1925C92.2942 60.6423 93.1714 61.5452 93.1714 62.6329V63.0639C93.1714 64.172 92.2942 65.0545 91.1925 65.0545Z" fill="#EAEAEA"/>
</g>
<g id="Group_25">
<g id="Group_26">
<path id="Vector_20" d="M59.2247 41.2285C59.2451 41.2491 58.8575 41.4543 58.3474 41.8852C58.225 41.9879 58.0822 42.111 57.9394 42.2546C57.7966 42.3983 57.6538 42.5625 57.511 42.7266C57.2254 43.0755 56.9602 43.486 56.7154 43.9374C56.4705 44.3889 56.3073 44.8609 56.1849 45.2919C56.1237 45.5176 56.0829 45.7228 56.0421 45.9075C56.0013 46.1128 55.9809 46.2975 55.9605 46.4616C55.8993 47.1389 55.9605 47.5698 55.9401 47.5698C55.9401 47.5698 55.9197 47.4672 55.8993 47.2825C55.8789 47.1799 55.8789 47.0773 55.8789 46.9336C55.8789 46.79 55.8789 46.6463 55.8993 46.4616C55.9197 46.2975 55.9197 46.1128 55.9605 45.9075C55.9809 45.7023 56.0421 45.4971 56.0829 45.2714C56.2053 44.8404 56.3685 44.3684 56.6133 43.8964C56.8582 43.4244 57.1438 43.014 57.4294 42.6651C57.5722 42.5009 57.715 42.3367 57.8782 42.1931C58.021 42.0494 58.1638 41.9263 58.3066 41.8237C58.429 41.7211 58.5718 41.6185 58.6739 41.5569C58.7759 41.4748 58.8779 41.4132 58.9595 41.3722C59.1227 41.2696 59.2247 41.2285 59.2247 41.2285Z" fill="#263238"/>
</g>
</g>
<g id="Group_27">
<g id="Group_28">
<path id="Vector_21" d="M99.904 55.245C99.904 55.2655 92.1924 55.3066 82.7059 55.3271C73.199 55.3476 65.5078 55.3271 65.5078 55.3066C65.5078 55.286 73.199 55.245 82.7059 55.2245C92.2128 55.204 99.904 55.204 99.904 55.245Z" fill="#263238"/>
</g>
</g>
<g id="Group_29">
<g id="Group_30">
<path id="Vector_22" d="M85.808 32.1578C85.8284 32.1784 83.0539 33.8612 79.6061 35.8928C76.1787 37.9245 73.3634 39.5663 73.3634 39.5457C73.343 39.5252 76.1175 37.8424 79.5653 35.8107C82.9927 33.7791 85.7876 32.1373 85.808 32.1578Z" fill="#E0E0E0"/>
</g>
</g>
<g id="Group_31">
<g id="Group_32">
<path id="Vector_23" d="M80.0348 32.753C80.0552 32.7735 77.9947 34.128 75.4446 35.7697C72.8944 37.4115 70.8135 38.7249 70.7931 38.7043C70.7727 38.6838 72.8332 37.3294 75.3834 35.6876C77.9335 34.0459 80.0144 32.7325 80.0348 32.753Z" fill="#E0E0E0"/>
</g>
</g>
<g id="Group_33">
<g id="Group_34">
<path id="Vector_24" d="M88.8485 32.4452C88.8689 32.4657 87.0328 33.7175 84.7479 35.2567C82.463 36.7753 80.6065 38.0066 80.5861 37.9656C80.5657 37.945 82.4018 36.6932 84.6867 35.1541C86.9716 33.6354 88.8281 32.4247 88.8485 32.4452Z" fill="#E0E0E0"/>
</g>
</g>
<g id="Group_35">
<g id="Group_36">
<path id="Vector_25" d="M114.003 68.6869C114.003 68.7074 100.11 68.7484 82.9527 68.7689C65.7955 68.7895 51.9023 68.7689 51.9023 68.7279C51.9023 68.7074 65.7955 68.6663 82.9527 68.6458C100.11 68.6458 114.003 68.6458 114.003 68.6869Z" fill="#263238"/>
</g>
</g>
<g id="Group_37">
<g id="Group_38">
<path id="Vector_26" d="M109.349 48.7601C109.349 48.7601 109.37 48.6369 109.431 48.4317C109.492 48.2265 109.574 47.9187 109.635 47.5288C109.696 47.1388 109.737 46.6668 109.696 46.1538C109.655 45.6407 109.574 45.0661 109.308 44.5326C109.043 43.999 108.717 43.527 108.39 43.1165C108.064 42.7061 107.717 42.3777 107.411 42.152C107.105 41.9057 106.819 41.7621 106.615 41.7005C106.513 41.6595 106.432 41.6595 106.371 41.639C106.309 41.639 106.289 41.6184 106.289 41.6184C106.289 41.6184 106.309 41.6184 106.371 41.6184C106.432 41.6184 106.513 41.6184 106.615 41.6595C106.84 41.7005 107.126 41.8442 107.452 42.0904C107.778 42.3367 108.125 42.6445 108.452 43.055C108.798 43.4654 109.125 43.9374 109.39 44.4915C109.512 44.7583 109.614 45.0661 109.676 45.3329C109.737 45.6202 109.757 45.887 109.778 46.1538C109.818 46.6873 109.757 47.1594 109.696 47.5493C109.635 47.9392 109.533 48.247 109.472 48.4522C109.431 48.5548 109.41 48.6369 109.39 48.6985C109.37 48.719 109.349 48.7601 109.349 48.7601Z" fill="#263238"/>
</g>
</g>
<g id="Group_39">
<g id="Group_40">
<path id="Vector_27" d="M111.718 52.926C111.718 52.926 111.718 50.9354 111.555 49.7451C111.494 49.2936 110.637 47.6929 108.128 47.4262C107.475 47.3646 106.924 47.3235 106.455 47.303C104.823 47.262 103.232 47.9187 102.13 49.1295C101.783 49.5194 101.457 49.9709 101.253 50.5044C100.355 52.6182 99.9062 55.2245 99.9062 55.2245L111.718 52.926Z" fill="#EAEAEA"/>
</g>
<g id="Group_41" opacity="0.3">
<path id="Vector_28" d="M111.535 52.926H111.718C111.718 52.926 112.351 54.8756 110.862 55.6965C109.862 56.2506 106.537 56.7841 104.394 57.092C103.191 57.2562 101.987 56.9278 101.049 56.1685L99.9062 55.245L111.535 52.926Z" fill="black"/>
</g>
</g>
<g id="Group_42" opacity="0.3">
<path id="Vector_29" d="M111.861 60.9091C111.861 60.9091 111.984 65.6907 109.352 65.9369L107.557 66.1011C106.72 66.1832 105.925 65.7933 105.476 65.075L103.844 62.4892L111.861 60.9091Z" fill="black"/>
</g>
</g>
<g id="Group_43">
<g id="Group_44">
<path id="Vector_30" d="M26.2758 8.66025H24.2969V12.9904H26.2758V8.66025Z" fill="#263238"/>
</g>
<g id="Group_45">
<g id="Group_46">
<path id="Vector_31" d="M39.9061 0.061554H10.7734V8.88598H39.9061V0.061554Z" fill="#F5F5F5"/>
</g>
<g id="Group_47">
<g id="Group_48">
<path id="Vector_32" d="M39.9048 8.86547C39.9048 8.86547 39.9048 8.8039 39.9048 8.70129C39.9048 8.59868 39.9048 8.45503 39.9048 8.24981C39.9048 7.85989 39.9048 7.26476 39.9048 6.52597C39.9048 5.00734 39.8844 2.8115 39.8844 0.0410415L39.9252 0.0820853C33.1113 0.0820853 22.5639 0.102607 10.7925 0.102607L10.8537 0.0410415C10.8537 3.09881 10.8537 6.05396 10.8537 8.86547L10.7721 8.82442C19.1366 8.82442 26.3993 8.84494 31.6016 8.84494C34.1925 8.84494 36.2734 8.86547 37.7015 8.86547C36.2734 8.86547 34.2129 8.86547 31.622 8.88599C26.4197 8.88599 19.1366 8.90651 10.7721 8.90651H10.7109V8.84494C10.7109 6.03344 10.7109 3.07828 10.7109 0.0205196V-0.0410461H10.7721C22.5639 -0.0410461 33.0909 -0.0205242 39.9048 -0.0205242H39.9456V0.0205196C39.9456 2.8115 39.9252 5.00734 39.9252 6.52597C39.9252 7.28528 39.9252 7.85989 39.9252 8.24981C39.9252 8.43451 39.9252 8.59868 39.9252 8.70129C39.9048 8.82442 39.9048 8.86547 39.9048 8.86547Z" fill="#263238"/>
</g>
</g>
</g>
<g id="Group_49">
<g id="Group_50">
<path id="Vector_33" d="M44.5967 72.5655H0V80.8769H44.5967V72.5655Z" fill="#263238"/>
</g>
<g id="Group_51">
<g id="Group_52">
<path id="Vector_34" d="M37.7425 11.5538H13.1797V72.5655H37.7425V11.5538Z" fill="#455A64"/>
</g>
<g id="Group_53">
<path id="Vector_35" d="M37.7425 24.339H13.1797V46.0512H37.7425V24.339Z" fill="#263238"/>
</g>
<g id="Group_54">
<path id="Vector_36" d="M33.0718 72.5655H20.4844V55.286C20.4844 51.7973 23.2997 48.9448 26.7883 48.9448C30.2565 48.9448 33.0922 51.7768 33.0922 55.286V72.5655H33.0718Z" fill="#263238"/>
</g>
<g id="Group_55">
<g id="Group_56">
<path id="Vector_37" d="M78.9092 57.8513H26.1521C24.7852 57.8513 23.6836 56.7431 23.6836 55.3681C23.6836 53.9932 24.7852 52.885 26.1521 52.885H78.9092C80.2761 52.885 81.3777 53.9932 81.3777 55.3681C81.3777 56.7431 80.2761 57.8513 78.9092 57.8513Z" fill="#E8505B"/>
</g>
<g id="Group_57" opacity="0.5">
<path id="Vector_38" d="M26.1955 57.0509C27.1081 57.0509 27.8479 56.3067 27.8479 55.3887C27.8479 54.4706 27.1081 53.7264 26.1955 53.7264C25.2828 53.7264 24.543 54.4706 24.543 55.3887C24.543 56.3067 25.2828 57.0509 26.1955 57.0509Z" fill="white"/>
</g>
<g id="Group_58">
<path id="Vector_39" d="M30.2539 57.8513L33.9669 52.9055H39.9852L36.0682 57.8513H30.2539Z" fill="white"/>
</g>
<g id="Group_59">
<path id="Vector_40" d="M43.2305 57.8513L46.9435 52.9055H52.9618L49.0448 57.8513H43.2305Z" fill="white"/>
</g>
<g id="Group_60">
<path id="Vector_41" d="M56.2031 57.8513L59.8957 52.9055H65.9344L61.997 57.8513H56.2031Z" fill="white"/>
</g>
<g id="Group_61">
<path id="Vector_42" d="M69.1602 57.8513L72.8731 52.9055H78.8915L74.9745 57.8513H69.1602Z" fill="white"/>
</g>
<g id="Group_62">
<g id="Group_63">
<path id="Vector_43" d="M78.911 57.8513C78.911 57.8513 78.9314 57.8513 78.9926 57.8513C79.0538 57.8513 79.115 57.8513 79.217 57.8308C79.421 57.8102 79.727 57.7281 80.0738 57.5435C80.237 57.4408 80.441 57.3177 80.6043 57.133C80.7879 56.9483 80.9511 56.7431 81.0735 56.4763C81.3387 55.9633 81.4407 55.2245 81.1755 54.5062C80.9103 53.7879 80.237 53.1312 79.319 52.9671C79.0946 52.926 78.8498 52.926 78.6049 52.926C78.3601 52.926 78.1153 52.926 77.8705 52.926C77.3605 52.926 76.8505 52.926 76.2996 52.926C74.1167 52.926 71.6482 52.926 68.9145 52.926C57.9591 52.926 42.8419 52.926 26.1539 52.9465C25.6438 52.9465 25.1338 53.1107 24.7258 53.4185C24.3178 53.7264 24.0118 54.1573 23.8485 54.6293C23.7669 54.8756 23.7465 55.1219 23.7465 55.3681C23.7465 55.6144 23.7873 55.8812 23.8689 56.1069C24.0322 56.5789 24.3382 57.0099 24.7462 57.2972C25.1542 57.605 25.6438 57.7487 26.1335 57.7692C26.6435 57.7692 27.1331 57.7692 27.6431 57.7692C28.6428 57.7692 29.6424 57.7692 30.6217 57.7692C34.5591 57.7692 38.3537 57.7692 41.9851 57.7692C49.2274 57.7692 55.7354 57.7692 61.2029 57.7897C66.6703 57.7897 71.0974 57.8102 74.1575 57.8102C75.6876 57.8102 76.8709 57.8102 77.6869 57.8102C78.0949 57.8102 78.4009 57.8102 78.6049 57.8102C78.809 57.8513 78.911 57.8513 78.911 57.8513C78.911 57.8513 78.809 57.8513 78.6049 57.8513C78.4009 57.8513 78.0949 57.8513 77.6869 57.8513C76.8709 57.8513 75.6876 57.8513 74.1575 57.8513C71.0974 57.8513 66.6703 57.8513 61.2029 57.8718C55.7354 57.8718 49.207 57.8718 41.9851 57.8923C38.3741 57.8923 34.5591 57.8923 30.6217 57.8923C29.6424 57.8923 28.6428 57.8923 27.6431 57.8923C27.1331 57.8923 26.6435 57.8923 26.1335 57.8923C25.6234 57.8923 25.093 57.7281 24.685 57.4203C24.2566 57.1125 23.9505 56.661 23.7669 56.1685C23.6853 55.9222 23.6445 55.6554 23.6445 55.3886C23.6445 55.1219 23.6853 54.8551 23.7669 54.6088C23.9301 54.1163 24.2362 53.6443 24.685 53.3365C25.1134 53.0081 25.6438 52.8439 26.1743 52.8439C42.8827 52.8439 57.9999 52.8645 68.9349 52.8645C71.6686 52.8645 74.1371 52.8645 76.32 52.8645C76.8709 52.8645 77.3809 52.8645 77.8909 52.8645C78.1357 52.8645 78.4009 52.8645 78.6254 52.8645C78.8702 52.8645 79.115 52.8645 79.3394 52.9055C80.2778 53.0697 80.9715 53.7469 81.2367 54.4857C81.5019 55.2245 81.3999 55.9633 81.1347 56.4763C80.9919 56.7431 80.8287 56.9688 80.6451 57.133C80.4614 57.3177 80.2778 57.4408 80.0942 57.5435C79.727 57.7281 79.421 57.7897 79.217 57.8102C79.013 57.8718 78.911 57.8513 78.911 57.8513Z" fill="#263238"/>
</g>
</g>
</g>
<g id="Group_64">
<g id="Group_65">
<path id="Vector_44" d="M35.4578 18.3876C35.4578 18.4082 31.2348 18.4492 26.0121 18.4492C20.7894 18.4492 16.5664 18.4287 16.5664 18.3876C16.5664 18.3671 20.7894 18.3261 26.0121 18.3261C31.2144 18.3466 35.4578 18.3671 35.4578 18.3876Z" fill="#263238"/>
</g>
</g>
<g id="Group_66">
<g id="Group_67">
<path id="Vector_45" d="M35.4578 16.6433C35.4578 16.6638 31.2348 16.7048 26.0121 16.7048C20.7894 16.7048 16.5664 16.6843 16.5664 16.6433C16.5664 16.6227 20.7894 16.5817 26.0121 16.5817C31.2144 16.5817 35.4578 16.6227 35.4578 16.6433Z" fill="#263238"/>
</g>
</g>
<g id="Group_68">
<g id="Group_69">
<path id="Vector_46" d="M35.4578 20.0704C35.4578 20.0909 31.2348 20.132 26.0121 20.132C20.7894 20.132 16.5664 20.1115 16.5664 20.0704C16.5664 20.0499 20.7894 20.0089 26.0121 20.0089C31.2144 20.0294 35.4578 20.0499 35.4578 20.0704Z" fill="#263238"/>
</g>
</g>
</g>
<g id="Group_70">
<g id="Group_71">
<path id="Vector_47" d="M44.5967 72.5655C44.5967 72.586 34.6206 72.627 22.2983 72.627C9.97611 72.627 0 72.6065 0 72.5655C0 72.545 9.97611 72.5039 22.2983 72.5039C34.6206 72.5039 44.5967 72.545 44.5967 72.5655Z" fill="#455A64"/>
</g>
</g>
<g id="Group_72">
<g id="Group_73">
<path id="Vector_48" d="M9.32292 81C9.30252 81 9.26172 79.112 9.26172 76.7725C9.26172 74.433 9.28212 72.545 9.32292 72.545C9.34332 72.545 9.38412 74.433 9.38412 76.7725C9.38412 79.0915 9.36372 81 9.32292 81Z" fill="#455A64"/>
</g>
</g>
<g id="Group_74">
<g id="Group_75">
<path id="Vector_49" d="M14.362 81C14.3416 81 14.3008 79.112 14.3008 76.7725C14.3008 74.433 14.3212 72.545 14.362 72.545C14.3824 72.545 14.4232 74.433 14.4232 76.7725C14.4232 79.0915 14.4028 81 14.362 81Z" fill="#455A64"/>
</g>
</g>
<g id="Group_76">
<g id="Group_77">
<path id="Vector_50" d="M19.401 81C19.3806 81 19.3398 79.112 19.3398 76.7725C19.3398 74.433 19.3602 72.545 19.401 72.545C19.4214 72.545 19.4622 74.433 19.4622 76.7725C19.4418 79.0915 19.4214 81 19.401 81Z" fill="#455A64"/>
</g>
</g>
<g id="Group_78">
<g id="Group_79">
<path id="Vector_51" d="M24.4401 81C24.4197 81 24.3789 79.112 24.3789 76.7725C24.3789 74.433 24.3993 72.545 24.4401 72.545C24.4605 72.545 24.5013 74.433 24.5013 76.7725C24.4809 79.0915 24.4605 81 24.4401 81Z" fill="#455A64"/>
</g>
</g>
<g id="Group_80">
<g id="Group_81">
<path id="Vector_52" d="M29.4596 81C29.4392 81 29.3984 79.112 29.3984 76.7725C29.3984 74.433 29.4188 72.545 29.4596 72.545C29.5004 72.545 29.5208 74.433 29.5208 76.7725C29.5208 79.0915 29.5004 81 29.4596 81Z" fill="#455A64"/>
</g>
</g>
<g id="Group_82">
<g id="Group_83">
<path id="Vector_53" d="M34.4987 81C34.4783 81 34.4375 79.112 34.4375 76.7725C34.4375 74.433 34.4579 72.545 34.4987 72.545C34.5191 72.545 34.5599 74.433 34.5599 76.7725C34.5599 79.0915 34.5395 81 34.4987 81Z" fill="#455A64"/>
</g>
</g>
<g id="Group_84">
<g id="Group_85">
<path id="Vector_54" d="M39.5378 81C39.5174 81 39.4766 79.112 39.4766 76.7725C39.4766 74.433 39.497 72.545 39.5378 72.545C39.5786 72.545 39.599 74.433 39.599 76.7725C39.599 79.0915 39.5582 81 39.5378 81Z" fill="#455A64"/>
</g>
</g>
</g>
<g id="Group_86">
<path id="Vector_55" d="M19.9741 4.82265C19.9741 5.23309 19.6477 5.47936 19.0357 5.47936H17.832V3.05777H18.9541C19.5253 3.05777 19.8313 3.30403 19.8313 3.69395C19.8313 3.94021 19.7089 4.12491 19.5253 4.22752C19.7905 4.30961 19.9741 4.4943 19.9741 4.82265ZM18.2809 3.40664V4.08387H18.9133C19.2193 4.08387 19.4029 3.98126 19.4029 3.75551C19.4029 3.52977 19.2193 3.42716 18.9133 3.42716H18.2809V3.40664ZM19.5253 4.78161C19.5253 4.53535 19.3417 4.43274 19.0153 4.43274H18.3013V5.13048H19.0153C19.3417 5.13048 19.5253 5.00735 19.5253 4.78161Z" fill="#263238"/>
<path id="Vector_56" d="M20.2812 4.26856C20.2812 3.55029 20.8321 3.01672 21.5869 3.01672C22.3418 3.01672 22.8926 3.55029 22.8926 4.26856C22.8926 4.98683 22.3418 5.5204 21.5869 5.5204C20.8321 5.49988 20.2812 4.98683 20.2812 4.26856ZM22.4234 4.26856C22.4234 3.77603 22.0561 3.42716 21.5869 3.42716C21.0973 3.42716 20.7505 3.77603 20.7505 4.26856C20.7505 4.76109 21.1177 5.10996 21.5869 5.10996C22.0561 5.10996 22.4234 4.76109 22.4234 4.26856Z" fill="#263238"/>
<path id="Vector_57" d="M24.9116 5.47936L24.422 4.76109C24.3812 4.76109 24.3608 4.76109 24.32 4.76109H23.7691V5.45883H23.3203V3.05777H24.32C24.9524 3.05777 25.34 3.38612 25.34 3.91969C25.34 4.28908 25.1564 4.55587 24.83 4.679L25.3808 5.47936H24.9116ZM24.2996 3.42716H23.7691V4.39169H24.2996C24.6872 4.39169 24.8912 4.207 24.8912 3.89917C24.8912 3.61186 24.7076 3.42716 24.2996 3.42716Z" fill="#263238"/>
<path id="Vector_58" d="M25.8516 3.05777H26.9124C27.6877 3.05777 28.2181 3.5503 28.2181 4.26856C28.2181 4.98683 27.6877 5.47936 26.9124 5.47936H25.8516V3.05777ZM26.8716 5.08944C27.402 5.08944 27.7489 4.76109 27.7489 4.26856C27.7489 3.77604 27.402 3.44769 26.8716 3.44769H26.28V5.10996H26.8716V5.08944Z" fill="#263238"/>
<path id="Vector_59" d="M30.4789 5.08944V5.45883H28.6836V3.05777H30.4381V3.42716H29.1324V4.06334H30.2953V4.43274H29.1324V5.10996H30.4789V5.08944Z" fill="#263238"/>
<path id="Vector_60" d="M32.56 5.47936L32.0704 4.76109C32.0296 4.76109 32.0092 4.76109 31.9684 4.76109H31.4176V5.45883H30.9688V3.05777H31.9684C32.6008 3.05777 32.9885 3.38612 32.9885 3.91969C32.9885 4.28908 32.8048 4.55587 32.4784 4.679L33.0293 5.47936H32.56ZM31.948 3.42716H31.4176V4.39169H31.948C32.3356 4.39169 32.5396 4.207 32.5396 3.89917C32.56 3.61186 32.356 3.42716 31.948 3.42716Z" fill="#263238"/>
</g>
<g id="Group_87">
<g id="Group_88">
<path id="Vector_61" d="M4.63152 80.9589C4.61111 80.9589 4.57031 79.0709 4.57031 76.7314C4.57031 74.3919 4.59071 72.5039 4.63152 72.5039C4.65192 72.5039 4.69272 74.3919 4.69272 76.7314C4.69272 79.0504 4.65192 80.9589 4.63152 80.9589Z" fill="#455A64"/>
</g>
</g>
</g>
</g>
<defs>
<clipPath id="clip0_841_358">
<rect width="117" height="81" fill="white"/>
</clipPath>
</defs>
</svg>
