<svg width="157" height="53" viewBox="0 0 157 53" fill="none" xmlns="http://www.w3.org/2000/svg">
<g id="Frame" clip-path="url(#clip0_841_532)">
<path id="Vector" opacity="0.5" d="M137.251 51.6956C137.251 52.413 132.059 52.9782 125.678 52.9782C119.275 52.9782 114.105 52.3913 114.105 51.6956C114.105 50.9782 119.297 50.413 125.678 50.413C132.081 50.413 137.251 51 137.251 51.6956Z" fill="url(#paint0_linear_841_532)"/>
<path id="Vector_2" opacity="0.5" d="M83.1287 42.1957C83.1287 44.2391 64.8503 45.9131 42.3105 45.9131C19.7706 45.9131 1.49219 44.2609 1.49219 42.1957C1.49219 40.1522 19.7706 38.4783 42.3105 38.4783C64.8503 38.4783 83.1287 40.1304 83.1287 42.1957Z" fill="url(#paint1_linear_841_532)"/>
<g id="Group">
<g id="Group_2">
<path id="Vector_3" d="M107.378 18.8044L107.183 18.4565L80.5115 17.2174C80.4034 15.8913 79.2785 14.8478 77.9374 14.8478C76.5097 14.8478 75.3633 16 75.3633 17.4348C75.3633 18.2826 75.7743 19.0435 76.4016 19.5218C75.8175 20.1304 75.4498 20.9783 75.4498 21.8913C75.4498 23.7826 76.964 25.3044 78.8459 25.3044C79.7328 25.3044 80.5548 24.9565 81.1605 24.3913C81.831 25.9565 83.3885 27.0652 85.2055 27.0652C85.7679 27.0652 86.3087 26.9565 86.8062 26.7609C86.8495 27.2609 87.0442 27.6957 87.3038 28.087C86.8711 28.6087 86.6116 29.2826 86.6116 30C86.6116 31.6522 87.9527 33 89.5967 33C91.219 33 92.5385 31.6957 92.5818 30.087L107.378 18.8044Z" fill="url(#paint2_linear_841_532)"/>
<g id="Group_3">
<path id="Vector_4" d="M107.181 18.7391L87.9727 19.4783L107.181 18.5217V18.7391Z" fill="white"/>
<path id="Vector_5" d="M96.2344 21.9782L107.158 18.5435L107.201 18.7391L96.2344 21.9782Z" fill="white"/>
<path id="Vector_6" d="M94.5469 26.7174L107.115 18.5435L107.244 18.7391L94.5469 26.7174Z" fill="white"/>
</g>
</g>
<g id="Group_4">
<g id="Group_5">
<path id="Vector_7" d="M150.639 40.8478C148.584 39.6522 147.438 37.3696 146.767 35.1739C146.421 34 146.183 32.8044 145.815 31.6305C145.469 30.5218 145.036 29.4565 144.496 28.4348C143.436 26.4565 141.857 24.8261 139.78 23.9131C139.066 23.6087 138.309 23.3913 137.53 23.2609C137.249 23.2174 137.141 23.6305 137.422 23.6739C139.888 24.1087 141.965 25.4131 143.414 27.4783C144.799 29.4565 145.512 31.8261 146.053 34.1522C146.572 36.3478 147.416 38.5218 149.017 40.1305C149.774 40.8913 150.682 41.4348 151.677 41.7826C152.954 42.2392 154.295 42.1957 155.636 42.1739C156.09 42.1739 156.544 42.1522 156.999 42.1739V41.7826C154.814 41.7609 152.586 41.9783 150.639 40.8478Z" fill="url(#paint3_linear_841_532)"/>
</g>
<path id="Vector_8" d="M137.51 24.3478C137.489 24.3478 137.467 24.3478 137.446 24.3478C130.004 22.6957 110.579 18.3696 109.866 18.3044C109.217 18.2391 107.659 18.7826 107.118 19C106.945 19.0652 106.707 18.4565 106.88 18.3913C107.097 18.3044 109 17.5652 109.931 17.6522C110.817 17.7174 136.494 23.4565 137.575 23.6957C137.748 23.7391 137.857 23.913 137.813 24.087C137.792 24.2391 137.662 24.3478 137.51 24.3478Z" fill="url(#paint4_linear_841_532)"/>
<path id="Vector_9" d="M138.463 24.1087C138.311 24.8913 137.554 25.413 136.775 25.2609L131.735 24.2826C130.956 24.1304 130.437 23.3696 130.589 22.587C130.74 21.8044 131.497 21.2826 132.276 21.4348L137.316 22.413C138.095 22.5652 138.614 23.3261 138.463 24.1087Z" fill="url(#paint5_linear_841_532)"/>
</g>
</g>
<g id="Group_6">
<g id="Group_7">
<path id="Vector_10" d="M122.369 45.3261V49.8261C122.369 49.8261 118.93 50.2826 118.93 50.6739C118.93 51.0652 123.991 51.8044 124.511 51.6957C125.03 51.587 125.441 45.7826 125.441 45.7826L122.369 45.3261Z" fill="url(#paint6_linear_841_532)"/>
<path id="Vector_11" d="M122.367 45.3261V47.5435C122.951 47.8261 123.925 48.1522 125.223 48.1087C125.352 46.8696 125.439 45.7826 125.439 45.7826L122.367 45.3261Z" fill="#BC3F3C"/>
</g>
<g id="Group_8">
<path id="Vector_12" d="M130.654 45.3261V49.8261C130.654 49.8261 127.215 50.2826 127.215 50.6739C127.215 51.0652 132.277 51.8044 132.796 51.6957C133.315 51.587 133.726 45.7826 133.726 45.7826L130.654 45.3261Z" fill="url(#paint7_linear_841_532)"/>
<path id="Vector_13" d="M133.531 48.1087C133.661 46.8696 133.747 45.7826 133.747 45.7826L130.676 45.3261V47.5435C131.238 47.8261 132.212 48.1522 133.531 48.1087Z" fill="#BC3F3C"/>
</g>
<g id="Group_9">
<path id="Vector_14" d="M123.88 20.413C123.88 20.413 121.782 34.0435 121.934 46.5869C121.934 46.5869 124.01 47.5435 125.827 46.5869L128.38 31.1304L130.153 46.6522C130.153 46.6522 131.862 47.6739 134.501 46.8261C134.501 46.8261 133.679 27.413 132.273 20.6304L123.88 20.413Z" fill="url(#paint8_linear_841_532)"/>
<path id="Vector_15" opacity="0.5" d="M128.422 31.3478L130.174 46.6304C130.174 46.6304 131.732 47.5652 134.176 46.8913C130.823 39.413 128.379 24.0435 128.379 24.0435L128.422 31.3478Z" fill="#38193B"/>
<path id="Vector_16" opacity="0.5" d="M132.295 20.6087L123.881 20.3913C123.881 20.3913 123.621 22.0652 123.297 24.7826L132.404 21.2174C132.36 21 132.339 20.8043 132.295 20.6087Z" fill="#38193B"/>
</g>
<g id="Group_10">
<path id="Vector_17" d="M128.705 7.39129C128.705 7.93477 128.272 8.36955 127.731 8.36955C127.19 8.36955 126.758 7.93477 126.758 7.39129V4.63042C126.758 4.08694 127.19 3.65216 127.731 3.65216C128.272 3.65216 128.705 4.08694 128.705 4.63042V7.39129Z" fill="url(#paint9_linear_841_532)"/>
<path id="Vector_18" d="M128.076 5.39133H128.054C127.513 5.39133 127.037 5.02176 126.756 4.45654C126.756 4.52176 126.734 4.56524 126.734 4.63046V6.45654C127.297 6.28263 127.773 5.91306 128.076 5.39133Z" fill="#B34A47"/>
<path id="Vector_19" d="M129.764 2.91304C129.764 2.23913 129.266 1.69565 128.66 1.69565C128.639 1.69565 128.596 1.69565 128.574 1.69565C128.596 1.63043 128.596 1.56522 128.596 1.5C128.596 0.673913 127.752 0 126.735 0C125.697 0 124.875 0.673913 124.875 1.5C124.875 2.26087 125.567 2.86957 126.454 2.97826C126.259 3.23913 126.151 3.56522 126.151 3.8913C126.151 4.76087 126.865 5.45652 127.752 5.45652C128.639 5.45652 129.353 4.76087 129.353 3.8913V3.86957C129.591 3.65217 129.764 3.30435 129.764 2.91304Z" fill="url(#paint10_linear_841_532)"/>
<path id="Vector_20" d="M127.06 2.91302C127.06 2.76085 127.081 2.60867 127.103 2.4565C126.476 2.3478 125.956 2.06519 125.675 1.67389C125.07 1.99998 124.615 2.58693 124.507 3.30432H124.248C124.118 3.30432 124.031 3.41302 124.031 3.52172C124.031 3.63041 124.139 3.73911 124.248 3.73911H124.464C124.507 4.9565 125.481 5.93476 126.67 5.93476C127.492 5.93476 128.206 5.47824 128.595 4.80432H128.574C127.73 4.82606 127.06 3.97824 127.06 2.91302Z" fill="url(#paint11_linear_841_532)"/>
<path id="Vector_21" d="M128.443 3.82608C128.443 4.21739 128.14 4.52174 127.751 4.52174C127.361 4.52174 127.059 4.21739 127.059 3.82608C127.059 3.43478 127.361 3.13043 127.751 3.13043C128.119 3.13043 128.443 3.43478 128.443 3.82608Z" fill="url(#paint12_linear_841_532)"/>
</g>
<path id="Vector_22" d="M123.664 20.8695C123.664 20.8695 126.433 22.7826 132.273 20.8695C132.273 20.8695 132.749 10.6522 131.408 8.54346C130.067 6.43476 126.498 7.21737 125.568 8.36955C124.637 9.54346 123.664 20.8695 123.664 20.8695Z" fill="url(#paint13_linear_841_532)"/>
<path id="Vector_23" opacity="0.5" d="M127.192 16.6739C128.274 15.0435 129.485 11.5652 128.469 9.65217C127.43 7.73912 126.111 7.63043 125.31 9.26086C125.246 9.41304 125.159 9.56521 125.094 9.73912C124.597 11.8696 124.142 15.8261 123.883 18.413C125.051 18.1522 126.565 17.6522 127.192 16.6739Z" fill="#F3D6EC"/>
<g id="Group_11">
<path id="Vector_24" d="M133.336 12.9782C132.86 8.13041 131.216 7.23911 131.216 7.23911C127.539 6.43476 125.852 7.97824 125.852 7.97824C128.772 7.76085 129.788 11.413 128.988 13.1739C128.274 14.7391 126.609 14.8478 125.852 14.8043V23.5652C132.125 24 135.542 21.7391 135.542 21.7391C135.542 21.7391 133.79 17.8261 133.336 12.9782Z" fill="url(#paint14_linear_841_532)"/>
<path id="Vector_25" d="M125.828 18.9565V20.7609C127.364 20.1087 129.094 19.7609 130.695 19.4782C131.95 19.2609 133.248 19.0869 134.524 18.9348C134.351 18.3913 134.199 17.8043 134.026 17.1522C131.236 17.3478 128.402 17.8696 125.828 18.9565Z" fill="url(#paint15_linear_841_532)"/>
<path id="Vector_26" opacity="0.4" d="M127.191 16.6739C127.645 16 128.121 14.9782 128.446 13.913C127.624 14.7609 126.434 14.8261 125.828 14.7826V17.7609C126.391 17.5 126.91 17.1304 127.191 16.6739Z" fill="#BC3F3C"/>
</g>
<g id="Group_12">
<g id="Group_13">
<path id="Vector_27" d="M115.9 18.8913C115.965 18.8478 116.03 18.7826 116.094 18.7174C116.462 18.3695 116.657 18.6739 116.614 18.8261C116.57 18.9782 115.965 19.9348 115.359 20.1739C114.732 20.4348 114.732 20.7826 114.861 20.8695C114.991 20.9348 115.445 20.8913 115.878 20.5869C115.878 20.5869 114.883 21.1739 114.97 21.4348C115.056 21.7174 115.51 21.5869 116.138 21.1739C116.138 21.1739 115.986 21.5217 116.159 21.6521C116.332 21.7608 117.284 21.5652 118.906 18.7826L122.368 17.4348L121.481 15.6739L118.128 17.3043C118.128 17.3043 116.7 17.3261 116.181 17.7174C115.835 17.9782 115.381 18.4348 115.186 18.7826L115.9 18.8913Z" fill="url(#paint16_linear_841_532)"/>
<g id="Group_14">
<g id="Group_15">
<path id="Vector_28" d="M115.858 20.6087C115.858 20.6087 115.836 20.6087 115.836 20.587C115.836 20.5652 115.836 20.5652 115.858 20.5435C115.858 20.5435 116.55 20.2174 117.047 19.1522C117.047 19.1304 117.069 19.1304 117.091 19.1304C117.112 19.1304 117.112 19.1522 117.112 19.1739C116.571 20.2826 115.879 20.6087 115.858 20.6087Z" fill="#B34A47"/>
</g>
<g id="Group_16">
<path id="Vector_29" d="M116.139 21.1739C116.139 21.1739 116.117 21.1739 116.117 21.1522C116.117 21.1304 116.117 21.1304 116.117 21.1087C116.117 21.1087 116.809 20.6956 117.199 20.0435C117.199 20.0217 117.22 20.0217 117.242 20.0435C117.264 20.0435 117.264 20.0652 117.242 20.0869C116.853 20.7609 116.16 21.1739 116.139 21.1739C116.16 21.1739 116.16 21.1739 116.139 21.1739Z" fill="#B34A47"/>
</g>
</g>
</g>
<path id="Vector_30" d="M120.637 15.6304C120.637 15.6304 121.329 17.3913 122.043 18.413C122.043 18.413 125.677 18.0869 126.737 16.4565C127.818 14.8261 129.03 11.3478 128.013 9.43476C126.975 7.52172 125.655 7.41302 124.855 9.04346C124.054 10.6739 123.276 14.0869 122.951 14.5C122.627 14.913 120.637 15.6304 120.637 15.6304Z" fill="url(#paint17_linear_841_532)"/>
<path id="Vector_31" opacity="0.5" d="M122.043 15.0435C121.394 15.3478 120.637 15.6304 120.637 15.6304C120.637 15.6304 121.329 17.3913 122.043 18.413C122.043 18.413 122.519 18.3695 123.168 18.2391C123.146 17.9782 122.367 15.7608 122.043 15.0435Z" fill="#F3D6EC"/>
<path id="Vector_32" d="M120.031 15.6304C119.858 15.913 121.156 18.8913 121.481 18.913C121.805 18.9347 122.8 18.5217 122.844 18.413C122.887 18.2826 121.719 14.9782 121.589 14.9782C121.437 14.9782 120.248 15.2826 120.031 15.6304Z" fill="url(#paint18_linear_841_532)"/>
</g>
</g>
<g id="Group_17">
<path id="Vector_33" d="M3.39844 36.3261L22.607 37.0435L65.8696 37.9566L84.0183 38.2392C84.0183 38.2392 82.5906 27.7392 82.3743 27.7174C82.1796 27.7174 65.3721 23.9131 65.3721 23.9131L7.53002 23.5652L3.39844 36.3261Z" fill="#38193B"/>
<path id="Vector_34" d="M91.112 29.4131C90.7442 26.4131 89.641 23.2609 85.5527 22.5652C81.4644 21.8696 72.1197 18.9348 65.8899 15.5218C59.66 12.1087 53.0192 7.50003 38.9156 7.32612C24.812 7.13047 13.0878 8.2609 12.8715 8.71742C12.6552 9.17394 7.70165 15.3044 4.32716 17.1522C4.32716 17.1522 2.38034 20.2609 2.51013 24.1522C2.51013 24.1522 -0.215412 28.7392 0.0225324 31.1087C0.282108 33.5 0.714734 36.2826 0.714734 36.2826C1.73141 37.3913 3.82964 37.2826 4.52184 37.1957C4.45695 36.6957 4.41369 36.1739 4.43532 35.6522C4.60837 30.8913 8.58853 27.1957 13.3258 27.3696C18.063 27.5435 21.7404 31.5435 21.5673 36.3044C21.5457 36.8261 21.4808 37.3261 21.3726 37.8044L21.8053 37.8261C21.8053 37.8261 48.3252 38.1305 65.0679 38.6957H66.3441C66.0196 37.7392 65.8682 36.7174 65.9115 35.6522C66.0845 30.8913 70.0647 27.1957 74.8019 27.3696C79.5392 27.5435 83.2165 31.5435 83.0435 36.3044C83.0218 37.1522 82.8488 37.9783 82.5892 38.7609H83.1516C83.1516 38.7609 90.1385 39.5652 90.8091 37.8913C91.458 36.2174 91.4797 32.4131 91.112 29.4131Z" fill="#FDA207"/>
<path id="Vector_35" opacity="0.5" d="M81.8763 21.7174C77.204 20.4566 70.6497 18.1305 65.8908 15.5218C59.661 12.1087 53.0202 7.50003 38.9166 7.32612C24.813 7.13047 13.0888 8.2609 12.8725 8.71742C12.6562 9.17394 7.70261 15.3044 4.32812 17.1522L78.6965 21.9566L81.8763 21.7174Z" fill="#FDA207"/>
<g id="Group_18">
<path id="Vector_36" d="M16.5268 10.2174C17.1325 10.1087 59.1621 13.3044 64.3103 16.2826C69.4586 19.2609 77.0079 21.4348 78.6086 21.9783C80.0579 22.4565 86.6555 28.0652 91.0899 29.4565V29.4348C90.7222 26.4348 89.619 23.2826 85.5306 22.587C81.4423 21.8913 72.0976 18.9565 65.8678 15.5435C59.638 12.1304 52.9972 7.52175 38.8936 7.34784C24.8116 7.13045 13.0874 8.26088 12.8711 8.71741C12.8711 8.71741 15.9211 10.3261 16.5268 10.2174Z" fill="#FDA207"/>
<path id="Vector_37" opacity="0.5" d="M75.1679 26.1304C70.1278 25.5652 68.354 27.9565 67.359 28.6087C66.3856 29.2609 66.1044 28.0217 65.1742 27.5C61.1292 25.2609 40.7741 24.6956 32.511 25.0652C24.2694 25.4348 23.2744 26.413 23.0365 27.6956C22.7769 28.9782 20.9166 29.913 20.9166 29.913C20.9166 29.913 19.424 26.9565 14.2325 26.413C9.06264 25.8913 6.92114 28.9348 3.58991 31.5217C1.94594 32.8043 0.842739 32.5869 0.128906 32.0217C0.388482 34.1522 0.712951 36.3043 0.712951 36.3043C1.72962 37.413 3.82786 37.3043 4.52006 37.2174C4.45517 36.7174 4.4119 36.1956 4.43354 35.6739C4.60659 30.913 8.58675 27.2174 13.324 27.3913C18.0613 27.5652 21.7386 31.5652 21.5655 36.3261C21.5439 36.8478 21.479 37.3478 21.3708 37.8261L21.8035 37.8478C21.8035 37.8478 48.3234 38.1522 65.0661 38.7174H66.3423C66.0179 37.7609 65.8664 36.7391 65.9097 35.6739C66.0827 30.913 70.0629 27.2174 74.8002 27.3913C79.5374 27.5652 83.2147 31.5652 83.0417 36.3261C83.0201 37.1739 82.847 38 82.5874 38.7826H83.1498C83.1498 38.7826 90.1368 39.5869 90.8073 37.913C90.829 37.8478 90.8506 37.7826 90.8722 37.7174C88.9903 36.7174 83.4959 36.3478 83.4959 36.3478C83.3662 30.413 80.208 26.7174 75.1679 26.1304Z" fill="#FDA207"/>
</g>
<path id="Vector_38" d="M21.4597 34.7174C21.5462 35.2391 21.5679 35.7609 21.5462 36.3044C21.5246 36.8261 21.4597 37.3261 21.3516 37.8044L21.7842 37.8261C21.7842 37.8261 48.3042 38.1304 65.0468 38.6957H66.323C66.1716 38.2174 66.0418 37.6957 65.9769 37.1957C60.8287 35.6739 49.5588 32.7174 38.8729 32.3696C28.9441 32.0435 23.7526 33.6739 21.4597 34.7174Z" fill="#FDA207"/>
<g id="Group_19">
<path id="Vector_39" d="M20.7034 36.2826C20.5519 40.5652 16.9611 43.8913 12.7214 43.7391C8.46004 43.587 5.15045 39.9783 5.30187 35.7174C5.45329 31.4348 9.04409 28.1087 13.2838 28.2609C17.5452 28.4131 20.8764 32.0217 20.7034 36.2826Z" fill="url(#paint19_linear_841_532)"/>
<path id="Vector_40" d="M18.9071 36.2174C18.7773 39.4783 16.0517 42.0435 12.7854 41.9131C9.54072 41.7826 6.98823 39.0435 7.11802 35.7609C7.24781 32.5 9.97335 29.9348 13.2397 30.0652C16.4844 30.1957 19.0152 32.9566 18.9071 36.2174Z" fill="url(#paint20_linear_841_532)"/>
<path id="Vector_41" d="M18.2821 36.1957C18.174 39.1087 15.7297 41.3913 12.8311 41.2826C9.93246 41.1739 7.66118 38.7174 7.76933 35.8044C7.87749 32.8913 10.3218 30.6087 13.2204 30.7174C16.119 30.8261 18.3903 33.2826 18.2821 36.1957Z" fill="url(#paint21_linear_841_532)"/>
<path id="Vector_42" d="M18.6278 35.1087L18.1303 35.087L15.6859 35L17.4813 33.3261L17.849 32.9783C17.4597 32.3478 16.9622 31.8044 16.3565 31.3696L15.9888 31.7174L14.1934 33.3913L14.2799 30.9348L14.3015 30.4348C13.9554 30.3478 13.5877 30.3044 13.22 30.2826C12.8522 30.2609 12.4845 30.2826 12.1168 30.3478V30.8696L12.0302 33.3261L10.3646 31.5218L10.0185 31.1522C9.39121 31.5435 8.85043 32.0435 8.4178 32.6522L8.7639 33.0218L10.4295 34.8261L7.98518 34.7391L7.48766 34.7174C7.40113 35.0652 7.35787 35.4348 7.33624 35.8044C7.31461 36.1739 7.33624 36.5435 7.40113 36.9131L7.89865 36.9348L10.343 37.0218L8.54759 38.6957L8.17986 39.0435C8.56922 39.6739 9.06674 40.2174 9.67242 40.6522L10.0401 40.3044L11.8355 38.6305L11.749 41.087L11.7274 41.587C12.0735 41.6739 12.4412 41.7174 12.809 41.7391C13.1767 41.7609 13.5444 41.7391 13.9122 41.6739L13.9338 41.1739L14.0203 38.7174L15.6859 40.5218L16.032 40.8913C16.6593 40.5 17.2001 40 17.6327 39.3913L17.2866 39.0218L15.621 37.2174L18.0654 37.3044L18.5629 37.3261C18.6494 36.9783 18.6927 36.6087 18.7143 36.2391C18.6927 35.8261 18.671 35.4783 18.6278 35.1087Z" fill="url(#paint22_linear_841_532)"/>
<path id="Vector_43" d="M14.6018 36.0652C14.5585 36.9566 13.8231 37.6522 12.9362 37.6087C12.0493 37.5653 11.3571 36.8261 11.4004 35.9348C11.4436 35.0435 12.1791 34.3479 13.066 34.3913C13.9529 34.4348 14.6451 35.1739 14.6018 36.0652Z" fill="url(#paint23_linear_841_532)"/>
</g>
<g id="Group_20">
<g id="Group_21">
<path id="Vector_44" d="M82.5041 36.2826C82.3527 40.5652 78.7619 43.8913 74.5222 43.7391C70.2608 43.587 66.9512 39.9783 67.1027 35.7174C67.2541 31.4348 70.8449 28.1087 75.0846 28.2609C79.3243 28.4131 82.6556 32.0217 82.5041 36.2826Z" fill="url(#paint24_linear_841_532)"/>
<path id="Vector_45" d="M80.6883 36.2174C80.5585 39.4783 77.833 42.0435 74.5667 41.9131C71.322 41.7826 68.7695 39.0435 68.8993 35.7609C69.0291 32.5 71.7546 29.9348 75.0209 30.0652C78.2656 30.1957 80.8181 32.9566 80.6883 36.2174Z" fill="url(#paint25_linear_841_532)"/>
<path id="Vector_46" d="M80.0595 36.1957C79.9513 39.1087 77.507 41.3913 74.6084 41.2826C71.7098 41.1739 69.4385 38.7174 69.5467 35.8044C69.6548 32.8913 72.0992 30.6087 74.9978 30.7174C77.8964 30.8261 80.1676 33.2826 80.0595 36.1957Z" fill="url(#paint26_linear_841_532)"/>
<path id="Vector_47" d="M80.4072 35.1087L79.9097 35.087L77.4654 35L79.2608 33.3261L79.6285 32.9783C79.2391 32.3478 78.7416 31.8044 78.1359 31.3696L77.7682 31.7174L75.9728 33.3913L76.0593 30.9348L76.081 30.4348C75.7349 30.3478 75.3671 30.3044 74.9994 30.2826C74.6317 30.2609 74.2639 30.2826 73.8962 30.3478L73.8746 30.8478L73.788 33.3044L72.1224 31.5L71.7763 31.1305C71.149 31.5218 70.6082 32.0218 70.1756 32.6305L70.5217 33L72.1873 34.8044L69.743 34.7174L69.2455 34.6957C69.1589 35.0435 69.1157 35.4131 69.094 35.7826C69.0724 36.1522 69.0941 36.5218 69.1589 36.8913L69.6565 36.9131L72.1008 37L70.3054 38.6739L69.9377 39.0218C70.327 39.6522 70.8246 40.1957 71.4302 40.6305L71.798 40.2826L73.5934 38.6087L73.5068 41.0652L73.4852 41.5652C73.8313 41.6522 74.199 41.6957 74.5668 41.7174C74.9345 41.7391 75.3022 41.7174 75.67 41.6522L75.6916 41.1522L75.7781 38.6957L77.4437 40.5L77.7898 40.8696C78.4171 40.4783 78.9579 39.9783 79.3906 39.3696L79.0444 39L77.3788 37.1957L79.8232 37.2826L80.3207 37.3044C80.4072 36.9565 80.4505 36.587 80.4721 36.2174C80.4937 35.8261 80.4505 35.4565 80.4072 35.1087Z" fill="url(#paint27_linear_841_532)"/>
<path id="Vector_48" d="M76.383 36.0652C76.3398 36.9566 75.6043 37.6522 74.7174 37.6087C73.8306 37.5653 73.1383 36.8261 73.1816 35.9348C73.2249 35.0435 73.9603 34.3479 74.8472 34.3913C75.7341 34.4348 76.4263 35.1739 76.383 36.0652Z" fill="url(#paint28_linear_841_532)"/>
</g>
</g>
<g id="Group_22" opacity="0.5">
<path id="Vector_49" d="M14.7549 17.6305C14.7549 18.0435 14.7549 18.4348 14.7765 18.8479C14.7982 19.2609 14.8198 19.6522 14.8631 20.0435C14.9496 20.8479 15.0577 21.6522 15.2308 22.4348C15.3173 22.8261 15.4255 23.2175 15.5336 23.587C15.6634 23.9566 15.7932 24.3479 15.9446 24.6957C16.096 25.0653 16.2907 25.4131 16.507 25.7392C16.7234 26.0653 16.9613 26.3696 17.2425 26.6522C17.3723 26.7827 17.5237 26.9131 17.6751 27.0218L17.9131 27.174L18.0429 27.2609L18.1727 27.3479C18.3457 27.4566 18.5188 27.5653 18.6918 27.674L19.1893 28.0435C19.3407 28.174 19.5138 28.3044 19.6652 28.4348C19.8166 28.5653 19.9681 28.7175 20.1195 28.8479C20.4223 29.1305 20.6819 29.4348 20.9415 29.7609C21.0712 29.9131 21.1794 30.087 21.3092 30.2609C21.4173 30.4348 21.5471 30.6088 21.6553 30.7827C21.8716 31.1305 22.0663 31.4783 22.261 31.8479C22.4557 32.1957 22.6287 32.5653 22.8234 32.9131C23.0181 33.2609 23.2344 33.6088 23.4507 33.9348C23.7319 34.4566 24.0131 35.0001 24.2727 35.5218C24.5539 36.0435 24.8135 36.587 25.0947 37.1088C24.7918 36.6088 24.489 36.087 24.1862 35.5653C23.8833 35.0435 23.5805 34.5435 23.2776 34.0218V34.0435C23.0397 33.7175 22.8018 33.3696 22.6071 33.0218C22.3908 32.674 22.1961 32.3261 22.0014 31.9783C21.8067 31.6305 21.5904 31.2827 21.3741 30.9566C21.2659 30.7827 21.1578 30.6305 21.028 30.4566C20.8982 30.3044 20.79 30.1305 20.6603 29.9783C20.4007 29.674 20.1411 29.3696 19.8599 29.1088C19.7085 28.9783 19.5787 28.8261 19.4273 28.7175C19.2759 28.587 19.1244 28.4566 18.973 28.3479L18.4971 28.0001C18.3241 27.8914 18.151 27.7827 17.9996 27.674L17.74 27.5001L17.4805 27.3261C17.3074 27.1957 17.156 27.0653 17.0046 26.9131C16.7017 26.6305 16.4421 26.2827 16.2258 25.9348C16.0095 25.587 15.8148 25.2175 15.6634 24.8261C15.339 24.0653 15.1443 23.2609 14.9929 22.4783C14.8414 21.674 14.7549 20.8696 14.7333 20.0653C14.69 19.2392 14.69 18.4348 14.7549 17.6305Z" fill="#61410A"/>
<path id="Vector_50" d="M38.0312 18.8044C38.0312 18.8044 38.0961 19.087 38.2043 19.587C38.2908 20.087 38.4422 20.8044 38.5937 21.6739C38.6802 22.1087 38.7451 22.5653 38.81 23.0653C38.8965 23.5653 38.9614 24.087 39.0263 24.6305C39.0912 25.1739 39.1561 25.7392 39.221 26.3044C39.2859 26.8696 39.3075 27.4566 39.3508 28.0435C39.394 29.2174 39.4373 30.3696 39.4589 31.4783C39.4589 32.0218 39.4805 32.5653 39.4805 33.0653C39.4805 33.5653 39.4805 34.0435 39.4805 34.4783C39.4805 35.3479 39.4589 36.087 39.4589 36.587C39.4373 37.087 39.4373 37.3913 39.4373 37.3913C39.4373 37.3913 39.4157 37.1087 39.394 36.587C39.3724 36.087 39.3291 35.3479 39.2859 34.4783C39.1993 32.7392 39.1128 30.3913 39.0047 28.0653C38.9614 27.4783 38.9398 26.9131 38.8749 26.3261C38.81 25.7609 38.7883 25.1957 38.7235 24.6522C38.6586 24.1087 38.6153 23.587 38.5504 23.087C38.4855 22.587 38.4422 22.1087 38.3773 21.6739C38.161 19.9566 38.0312 18.8044 38.0312 18.8044Z" fill="#61410A"/>
<path id="Vector_51" d="M64.8728 21.2175C64.8728 21.2175 64.9161 21.4783 64.981 21.9566C65.0459 22.4131 65.154 23.087 65.2405 23.8914C65.3271 24.6957 65.4136 25.6305 65.4569 26.6523C65.4785 27.1523 65.5001 27.674 65.4785 28.2175C65.4785 28.7609 65.4352 29.3044 65.3271 29.8479C65.2189 30.3914 65.0891 30.9131 64.9377 31.4131C64.7863 31.9349 64.6132 32.4131 64.4618 32.8914C64.1373 33.8479 63.7696 34.7175 63.4451 35.4566C63.1423 36.1957 62.8395 36.8044 62.6448 37.2392C62.4501 37.674 62.3203 37.9131 62.3203 37.9131C62.3203 37.9131 62.688 36.9131 63.2505 35.3914C63.5317 34.6305 63.8345 33.7392 64.1373 32.8044C64.4402 31.8479 64.7646 30.8262 64.9593 29.7827C65.0675 29.2827 65.0891 28.7392 65.1107 28.2175C65.1324 27.6957 65.1324 27.174 65.1107 26.674C65.0891 26.174 65.0891 25.6957 65.0675 25.2175C65.0459 24.7609 65.0242 24.3262 65.0026 23.9131C64.9593 23.1088 64.9161 22.4349 64.8944 21.9783C64.8944 21.4783 64.8728 21.2175 64.8728 21.2175Z" fill="#61410A"/>
<path id="Vector_52" d="M21.5039 37.0001C21.5039 37.0001 22.1745 37.0001 23.3642 37.0001C24.5539 37.0001 26.2412 37.0218 28.2961 37.0435C30.3295 37.0653 32.7089 37.087 35.2614 37.1305C37.8139 37.174 40.5178 37.2175 43.2434 37.2827C45.9689 37.3479 48.6728 37.4131 51.2253 37.4783C53.7778 37.5435 56.1573 37.6305 58.1906 37.674C60.2239 37.7392 61.9328 37.8044 63.1225 37.8479C64.3123 37.8914 64.9828 37.9348 64.9828 37.9348C64.9828 37.9348 64.3123 37.9348 63.1225 37.9348C61.9328 37.9348 60.2456 37.9348 58.1906 37.8914C56.1573 37.8696 53.7778 37.8479 51.2253 37.8044C48.6728 37.7609 45.9689 37.7175 43.2434 37.6522C40.5178 37.587 37.8139 37.5218 35.2614 37.4566C32.7089 37.3914 30.3295 37.3044 28.2961 37.2392C26.2628 37.174 24.5539 37.1088 23.3642 37.0653C22.1745 37.0435 21.5039 37.0001 21.5039 37.0001Z" fill="#61410A"/>
</g>
<g id="Group_23" opacity="0.5">
<path id="Vector_53" opacity="0.5" d="M11.5518 22.6957C11.5085 23.6087 10.7514 24.3478 9.82128 24.3044C8.91277 24.2609 8.1773 23.5 8.22057 22.5652C8.26383 21.6522 9.02092 20.9131 9.95107 20.9565C10.8812 21 11.595 21.7826 11.5518 22.6957Z" fill="#FDA207"/>
<path id="Vector_54" d="M21.2865 20.0435C21.2649 20.3913 20.9837 20.6739 20.6376 20.6522L17.2631 20.5218C16.917 20.5 16.6358 20.2174 16.6574 19.8696C16.6791 19.5218 16.9603 19.2391 17.3064 19.2609L20.6808 19.3913C21.0269 19.3913 21.2865 19.6957 21.2865 20.0435Z" fill="#FDA207"/>
<path id="Vector_55" d="M44.6264 21.6305C44.6047 21.9783 44.3235 22.2609 43.9774 22.2392L40.6029 22.1087C40.2568 22.087 39.9756 21.8044 39.9973 21.4566C40.0189 21.1087 40.3001 20.8261 40.6462 20.8479L44.0207 20.9783C44.3668 20.9783 44.648 21.2826 44.6264 21.6305Z" fill="#FDA207"/>
</g>
<g id="Group_24">
<path id="Vector_56" d="M15.0977 17.8044C15.0977 17.8044 15.4654 11.7609 16.4604 10.4783C17.4555 9.19566 26.692 7.93479 36.9885 7.97827C47.285 8.02174 60.5883 12.8913 63.6383 15.2609C64.2872 15.7609 64.8929 19.8696 64.6117 21.0435L15.0977 17.8044Z" fill="url(#paint29_linear_841_532)"/>
<g id="Group_25">
<path id="Vector_57" d="M33.9164 8.95653C24.7015 8.60871 18.861 10.3478 18.3203 10.6522C17.7795 10.9565 17.7362 12.5652 18.2121 13.8261C18.5582 14.7391 19.9426 17.0435 20.6564 18.1957L36.1877 19.2174C35.7984 16.9565 34.3491 8.97827 33.9164 8.95653Z" fill="url(#paint30_linear_841_532)"/>
<path id="Vector_58" d="M56.4792 12.5435C44.9714 8.60871 38.0493 8.26088 38.1575 8.8261C39.1525 13.587 40.2557 18.0652 40.6018 19.4783L59.0317 20.6957C58.4909 18.6739 56.8686 12.6739 56.4792 12.5435Z" fill="url(#paint31_linear_841_532)"/>
<path id="Vector_59" d="M62.5348 15.4783C61.648 14.9131 57.538 12.8044 57.7543 13.4783C57.9274 14.0435 59.2469 19.0653 59.6795 20.7392L62.059 20.8913C63.465 19.1087 63.2919 15.9566 62.5348 15.4783Z" fill="url(#paint32_linear_841_532)"/>
</g>
<g id="Group_26">
<path id="Vector_60" d="M25.8891 9.17389C25.1536 9.23911 24.4614 9.32606 23.8125 9.41302L31.2537 18.8695L33.6331 19.0217L25.8891 9.17389Z" fill="url(#paint33_linear_841_532)"/>
<path id="Vector_61" d="M19.25 10.3261L25.6745 18.5L29.5465 18.7609L22.3649 9.63043C21.0021 9.86956 19.9422 10.1304 19.25 10.3261Z" fill="url(#paint34_linear_841_532)"/>
<path id="Vector_62" d="M44.3438 9.23914L53.0395 20.3044L54.7268 20.413L46.2473 9.63044C45.5984 9.47827 44.9494 9.34783 44.3438 9.23914Z" fill="url(#paint35_linear_841_532)"/>
<path id="Vector_63" d="M38.1545 8.82607C38.1978 8.99999 38.2194 9.1739 38.2627 9.34781L46.5474 19.8696L51.0251 20.1739L42.1347 8.86955C39.4956 8.49999 38.0896 8.5652 38.1545 8.82607Z" fill="url(#paint36_linear_841_532)"/>
</g>
<path id="Vector_64" d="M61.2589 18.8044C61.2589 18.8044 63.6167 17.9131 63.6816 18.3261C63.7465 18.7174 63.4004 20.9565 62.6 20.9348C61.7996 20.9131 60.2422 20.2174 60.2422 20.2174L61.2589 18.8044Z" fill="url(#paint37_linear_841_532)"/>
<path id="Vector_65" d="M4.30469 17.1522C4.30469 17.1522 67.1004 19.7826 78.8894 22.0869C78.8894 22.0869 51.4609 20.3913 38.1144 19.5C24.7895 18.6087 4.30469 17.1522 4.30469 17.1522Z" fill="#FCA206"/>
<g id="Group_27">
<path id="Vector_66" d="M58.6626 16.3044C58.3165 16.4131 57.0402 20.1957 57.2349 20.3913C57.4296 20.587 60.3715 20.7174 61.1502 19.8261C61.9289 18.9348 61.6693 17.1522 61.2584 16.9565C60.8474 16.7391 58.9438 16.2174 58.6626 16.3044Z" fill="url(#paint38_linear_841_532)"/>
</g>
<path id="Vector_67" opacity="0.6" d="M59.6576 16.4565C59.1817 16.3478 58.7708 16.2826 58.6626 16.3043C58.3165 16.413 57.0402 20.1956 57.2349 20.3913C57.3215 20.4783 57.9488 20.5435 58.7059 20.5217C58.5112 20.5 58.3814 20.4565 58.3598 20.4348C58.1651 20.2609 59.2034 17.0869 59.6576 16.4565Z" fill="url(#paint39_linear_841_532)"/>
</g>
<path id="Vector_68" d="M27.625 32.9783C27.625 32.9783 28.0576 32.8913 28.8364 32.7609C29.6151 32.6522 30.7399 32.5 32.081 32.4131C32.7516 32.3696 33.4871 32.3261 34.2658 32.2826C35.0445 32.2609 35.8449 32.2174 36.6885 32.2391C37.5321 32.2174 38.3974 32.2609 39.2843 32.2826C40.1712 32.3044 41.058 32.3696 41.9666 32.4131C42.8534 32.5 43.762 32.5652 44.6488 32.6522C45.5357 32.7609 46.401 32.8696 47.223 32.9565C48.0666 33.0652 48.8669 33.2174 49.624 33.3261C50.3811 33.4348 51.095 33.6087 51.7655 33.7174C52.4361 33.8478 53.0418 33.9565 53.5609 34.087C54.1017 34.2174 54.556 34.3261 54.9453 34.4131C55.7024 34.6087 56.1351 34.6957 56.1351 34.6957C56.1351 34.6957 55.7024 34.6087 54.9237 34.4783C54.5343 34.4131 54.0585 34.3261 53.5393 34.2174C52.9985 34.1087 52.3928 34.0217 51.7223 33.9131C51.0517 33.8044 50.3379 33.6739 49.5808 33.587C48.8237 33.4783 48.0017 33.3696 47.1797 33.2609C46.3361 33.1739 45.4708 33.087 44.6056 32.9783C43.7187 32.9131 42.8318 32.8478 41.9449 32.7609C41.058 32.7174 40.1495 32.6304 39.2843 32.6087C38.3974 32.587 37.5321 32.5435 36.6885 32.5435C35.8449 32.5435 35.0445 32.5435 34.2658 32.5435C33.4871 32.5435 32.7732 32.587 32.1027 32.6087C30.7615 32.6739 29.6367 32.7391 28.858 32.8261C28.0793 32.9131 27.625 32.9783 27.625 32.9783Z" fill="#FDA207"/>
<g id="Group_28">
<path id="Vector_69" d="M9.21623 19.1305C9.56233 19.5435 6.18784 23 2.51052 24.1522C2.51052 24.1522 1.77506 22.5652 2.05626 20.6739C2.3591 18.7826 3.26762 18.1087 4.28429 18.2392C5.27933 18.3479 8.7836 18.6305 9.21623 19.1305Z" fill="url(#paint40_linear_841_532)"/>
<path id="Vector_70" d="M78.0044 21.7609C78.0693 22.5435 79.8214 23.9783 82.3739 25.4131C84.9264 26.8696 88.6037 27.0218 88.6253 26.587C88.647 26.1522 87.4572 23.6957 86.0728 22.6522C84.6668 21.6305 77.9395 20.9348 78.0044 21.7609Z" fill="url(#paint41_linear_841_532)"/>
</g>
</g>
</g>
<defs>
<linearGradient id="paint0_linear_841_532" x1="114.102" y1="51.7048" x2="137.256" y2="51.7048" gradientUnits="userSpaceOnUse">
<stop offset="0.006185" stop-color="#C6BDF4"/>
<stop offset="1" stop-color="#764E95"/>
</linearGradient>
<linearGradient id="paint1_linear_841_532" x1="1.50227" y1="42.1913" x2="83.127" y2="42.1913" gradientUnits="userSpaceOnUse">
<stop offset="0.006185" stop-color="#C6BDF4"/>
<stop offset="1" stop-color="#764E95"/>
</linearGradient>
<linearGradient id="paint2_linear_841_532" x1="75.3633" y1="23.9384" x2="107.371" y2="23.9384" gradientUnits="userSpaceOnUse">
<stop stop-color="white"/>
<stop offset="1" stop-color="#C7F1FF"/>
</linearGradient>
<linearGradient id="paint3_linear_841_532" x1="137.255" y1="32.7209" x2="159.196" y2="32.7209" gradientUnits="userSpaceOnUse">
<stop stop-color="#33444C"/>
<stop offset="0.9981" stop-color="#222221"/>
</linearGradient>
<linearGradient id="paint4_linear_841_532" x1="106.809" y1="20.98" x2="137.832" y2="20.98" gradientUnits="userSpaceOnUse">
<stop stop-color="#33444C"/>
<stop offset="0.9981" stop-color="#222221"/>
</linearGradient>
<linearGradient id="paint5_linear_841_532" x1="130.596" y1="22.5834" x2="138.466" y2="24.0883" gradientUnits="userSpaceOnUse">
<stop stop-color="#33444C"/>
<stop offset="0.9981" stop-color="#222221"/>
</linearGradient>
<linearGradient id="paint6_linear_841_532" x1="118.946" y1="48.516" x2="125.453" y2="48.516" gradientUnits="userSpaceOnUse">
<stop offset="0.00248924" stop-color="#F58B11"/>
<stop offset="0.9926" stop-color="#F2544C"/>
</linearGradient>
<linearGradient id="paint7_linear_841_532" x1="127.232" y1="48.516" x2="133.738" y2="48.516" gradientUnits="userSpaceOnUse">
<stop offset="0.00248924" stop-color="#F58B11"/>
<stop offset="0.9926" stop-color="#F2544C"/>
</linearGradient>
<linearGradient id="paint8_linear_841_532" x1="121.932" y1="33.7747" x2="134.527" y2="33.7747" gradientUnits="userSpaceOnUse">
<stop stop-color="#764E95"/>
<stop offset="0.9957" stop-color="#38193B"/>
</linearGradient>
<linearGradient id="paint9_linear_841_532" x1="126.74" y1="6.0129" x2="128.706" y2="6.0129" gradientUnits="userSpaceOnUse">
<stop stop-color="#E7857B"/>
<stop offset="1" stop-color="#B34A47"/>
</linearGradient>
<linearGradient id="paint10_linear_841_532" x1="124.857" y1="2.72778" x2="129.764" y2="2.72778" gradientUnits="userSpaceOnUse">
<stop stop-color="#764E95"/>
<stop offset="0.9957" stop-color="#38193B"/>
</linearGradient>
<linearGradient id="paint11_linear_841_532" x1="124.369" y1="3.72411" x2="129.338" y2="4.0165" gradientUnits="userSpaceOnUse">
<stop stop-color="#E7857B"/>
<stop offset="1" stop-color="#B34A47"/>
</linearGradient>
<linearGradient id="paint12_linear_841_532" x1="123.642" y1="3.57815" x2="129.691" y2="3.93406" gradientUnits="userSpaceOnUse">
<stop stop-color="#E7857B"/>
<stop offset="1" stop-color="#B34A47"/>
</linearGradient>
<linearGradient id="paint13_linear_841_532" x1="123.664" y1="14.4822" x2="132.361" y2="14.4822" gradientUnits="userSpaceOnUse">
<stop stop-color="#FDF2FA"/>
<stop offset="1" stop-color="#EFD6EB"/>
</linearGradient>
<linearGradient id="paint14_linear_841_532" x1="125.839" y1="15.3053" x2="135.528" y2="15.3053" gradientUnits="userSpaceOnUse">
<stop offset="0.00742955" stop-color="#F2544C"/>
<stop offset="1" stop-color="#BC3F3C"/>
</linearGradient>
<linearGradient id="paint15_linear_841_532" x1="125.837" y1="18.9435" x2="134.528" y2="18.9435" gradientUnits="userSpaceOnUse">
<stop offset="0.00248924" stop-color="#F58B11"/>
<stop offset="0.9926" stop-color="#F2544C"/>
</linearGradient>
<linearGradient id="paint16_linear_841_532" x1="114.798" y1="18.6398" x2="122.376" y2="18.6398" gradientUnits="userSpaceOnUse">
<stop stop-color="#E7857B"/>
<stop offset="1" stop-color="#B34A47"/>
</linearGradient>
<linearGradient id="paint17_linear_841_532" x1="122.956" y1="12.3257" x2="126.86" y2="14.6996" gradientUnits="userSpaceOnUse">
<stop stop-color="#FDF2FA"/>
<stop offset="1" stop-color="#EFD6EB"/>
</linearGradient>
<linearGradient id="paint18_linear_841_532" x1="120.529" y1="16.1259" x2="125.596" y2="20.3038" gradientUnits="userSpaceOnUse">
<stop stop-color="#FDF2FA"/>
<stop offset="1" stop-color="#EFD6EB"/>
</linearGradient>
<linearGradient id="paint19_linear_841_532" x1="5.31155" y1="35.7106" x2="20.7111" y2="36.2795" gradientUnits="userSpaceOnUse">
<stop stop-color="#4A255B"/>
<stop offset="1" stop-color="#38193B"/>
</linearGradient>
<linearGradient id="paint20_linear_841_532" x1="7.6128" y1="33.9259" x2="20.0171" y2="38.6402" gradientUnits="userSpaceOnUse">
<stop offset="0.00124466" stop-color="#7F548C"/>
<stop offset="1" stop-color="#4A255B"/>
</linearGradient>
<linearGradient id="paint21_linear_841_532" x1="7.74908" y1="35.8015" x2="18.2767" y2="36.1904" gradientUnits="userSpaceOnUse">
<stop stop-color="#4A255B"/>
<stop offset="1" stop-color="#38193B"/>
</linearGradient>
<linearGradient id="paint22_linear_841_532" x1="7.61473" y1="33.9259" x2="20.0192" y2="38.6403" gradientUnits="userSpaceOnUse">
<stop offset="0.00124466" stop-color="#7F548C"/>
<stop offset="1" stop-color="#4A255B"/>
</linearGradient>
<linearGradient id="paint23_linear_841_532" x1="11.4133" y1="35.9384" x2="14.6062" y2="36.0563" gradientUnits="userSpaceOnUse">
<stop stop-color="#4A255B"/>
<stop offset="1" stop-color="#38193B"/>
</linearGradient>
<linearGradient id="paint24_linear_841_532" x1="67.0965" y1="35.7106" x2="82.4959" y2="36.2795" gradientUnits="userSpaceOnUse">
<stop stop-color="#4A255B"/>
<stop offset="1" stop-color="#38193B"/>
</linearGradient>
<linearGradient id="paint25_linear_841_532" x1="69.3997" y1="33.926" x2="81.804" y2="38.6403" gradientUnits="userSpaceOnUse">
<stop offset="0.00124466" stop-color="#7F548C"/>
<stop offset="1" stop-color="#4A255B"/>
</linearGradient>
<linearGradient id="paint26_linear_841_532" x1="69.5321" y1="35.8015" x2="80.0597" y2="36.1904" gradientUnits="userSpaceOnUse">
<stop stop-color="#4A255B"/>
<stop offset="1" stop-color="#38193B"/>
</linearGradient>
<linearGradient id="paint27_linear_841_532" x1="69.3997" y1="33.9259" x2="81.8045" y2="38.6404" gradientUnits="userSpaceOnUse">
<stop offset="0.00124466" stop-color="#7F548C"/>
<stop offset="1" stop-color="#4A255B"/>
</linearGradient>
<linearGradient id="paint28_linear_841_532" x1="73.2004" y1="35.9384" x2="76.3933" y2="36.0563" gradientUnits="userSpaceOnUse">
<stop stop-color="#4A255B"/>
<stop offset="1" stop-color="#38193B"/>
</linearGradient>
<linearGradient id="paint29_linear_841_532" x1="15.2592" y1="13.182" x2="64.8521" y2="15.014" gradientUnits="userSpaceOnUse">
<stop stop-color="#4A255B"/>
<stop offset="1" stop-color="#38193B"/>
</linearGradient>
<linearGradient id="paint30_linear_841_532" x1="17.8257" y1="13.4283" x2="36.3774" y2="14.1136" gradientUnits="userSpaceOnUse">
<stop stop-color="white"/>
<stop offset="1" stop-color="#C7F1FF"/>
</linearGradient>
<linearGradient id="paint31_linear_841_532" x1="37.9551" y1="14.2292" x2="59.2406" y2="15.0156" gradientUnits="userSpaceOnUse">
<stop stop-color="white"/>
<stop offset="1" stop-color="#C7F1FF"/>
</linearGradient>
<linearGradient id="paint32_linear_841_532" x1="57.6052" y1="17.0313" x2="63.1244" y2="17.2352" gradientUnits="userSpaceOnUse">
<stop stop-color="white"/>
<stop offset="1" stop-color="#C7F1FF"/>
</linearGradient>
<linearGradient id="paint33_linear_841_532" x1="23.6518" y1="13.8689" x2="33.8192" y2="14.2445" gradientUnits="userSpaceOnUse">
<stop stop-color="white"/>
<stop offset="1" stop-color="#C7F1FF"/>
</linearGradient>
<linearGradient id="paint34_linear_841_532" x1="19.1126" y1="13.9387" x2="29.7228" y2="14.3307" gradientUnits="userSpaceOnUse">
<stop stop-color="white"/>
<stop offset="1" stop-color="#C7F1FF"/>
</linearGradient>
<linearGradient id="paint35_linear_841_532" x1="44.1555" y1="14.6197" x2="54.9515" y2="15.0186" gradientUnits="userSpaceOnUse">
<stop stop-color="white"/>
<stop offset="1" stop-color="#C7F1FF"/>
</linearGradient>
<linearGradient id="paint36_linear_841_532" x1="37.9562" y1="14.1163" x2="51.2294" y2="14.6066" gradientUnits="userSpaceOnUse">
<stop stop-color="white"/>
<stop offset="1" stop-color="#C7F1FF"/>
</linearGradient>
<linearGradient id="paint37_linear_841_532" x1="60.2789" y1="19.4722" x2="63.6474" y2="19.5966" gradientUnits="userSpaceOnUse">
<stop stop-color="#4A255B"/>
<stop offset="1" stop-color="#38193B"/>
</linearGradient>
<linearGradient id="paint38_linear_841_532" x1="57.29" y1="18.3717" x2="61.6577" y2="18.5331" gradientUnits="userSpaceOnUse">
<stop stop-color="#4A255B"/>
<stop offset="1" stop-color="#38193B"/>
</linearGradient>
<linearGradient id="paint39_linear_841_532" x1="57.29" y1="18.3716" x2="61.6576" y2="18.5329" gradientUnits="userSpaceOnUse">
<stop offset="0.00124466" stop-color="#7F548C"/>
<stop offset="1" stop-color="#4A255B"/>
</linearGradient>
<linearGradient id="paint40_linear_841_532" x1="1.9984" y1="21.1344" x2="9.16231" y2="21.3991" gradientUnits="userSpaceOnUse">
<stop stop-color="white"/>
<stop offset="1" stop-color="#C7F1FF"/>
</linearGradient>
<linearGradient id="paint41_linear_841_532" x1="77.9297" y1="23.8891" x2="88.7161" y2="24.2876" gradientUnits="userSpaceOnUse">
<stop stop-color="white"/>
<stop offset="1" stop-color="#C7F1FF"/>
</linearGradient>
<clipPath id="clip0_841_532">
<rect width="157" height="53" fill="white"/>
</clipPath>
</defs>
</svg>
