<svg width="28" height="27" viewBox="0 0 28 27" fill="none" xmlns="http://www.w3.org/2000/svg">
<g id="Group 194">
<path id="Vector" d="M7.4445 16.5336C6.41813 16.5336 5.57812 17.3736 5.57812 18.4C5.57812 19.4264 6.41813 20.2664 7.4445 20.2664C8.47088 20.2664 9.31087 19.4264 9.31087 18.4C9.31087 17.3736 8.47088 16.5336 7.4445 16.5336ZM7.4445 19.3336C6.93088 19.3336 6.51088 18.9136 6.51088 18.4C6.51088 17.8864 6.93088 17.4664 7.4445 17.4664C7.95813 17.4664 8.37812 17.8864 8.37812 18.4C8.37812 18.9136 7.95813 19.3336 7.4445 19.3336Z" fill="#1A9E75"/>
<path id="Vector_2" d="M22.3781 16.5336C21.3517 16.5336 20.5117 17.3736 20.5117 18.4C20.5117 19.4264 21.3517 20.2664 22.3781 20.2664C23.4045 20.2664 24.2445 19.4264 24.2445 18.4C24.2445 17.3736 23.4045 16.5336 22.3781 16.5336ZM22.3781 19.3336C21.8645 19.3336 21.4445 18.9136 21.4445 18.4C21.4445 17.8864 21.8645 17.4664 22.3781 17.4664C22.8917 17.4664 23.3117 17.8864 23.3117 18.4C23.3117 18.9136 22.8917 19.3336 22.3781 19.3336Z" fill="#1A9E75"/>
<path id="Vector_3" d="M24.2925 12.8L23.4989 9.06639C23.1725 7.85276 22.2389 7.20001 20.9789 7.20001H8.84525C7.53888 7.20001 6.79163 7.85364 6.41887 9.06639L5.57888 12.8H2.3125V13.7336H5.34613V13.78C3.89975 13.8736 2.77975 15.0864 2.77975 16.58V23.0664H4.17975V24.4664C4.17975 25.7728 5.20613 26.8 6.51337 26.8C7.82062 26.8 8.847 25.7736 8.847 24.4664V23.0664H20.9806V24.4664C20.9806 25.7728 22.007 26.8 23.3143 26.8C24.6215 26.8 25.6479 25.7736 25.6479 24.4664V23.0664H27.0479V16.58C27.0479 15.1336 25.9279 13.92 24.5279 13.78V13.7336H27.5142V12.8H24.2942H24.2925ZM7.30612 9.34639C7.58612 8.50639 8.00612 8.13276 8.84612 8.13276H20.9798C21.8661 8.13276 22.3798 8.50639 22.6134 9.29914L23.547 13.7791H6.28062L7.307 9.34551L7.30612 9.34639ZM7.9125 24.4664C7.9125 25.26 7.30613 25.8664 6.5125 25.8664C5.71887 25.8664 5.1125 25.26 5.1125 24.4664V23.0664H7.9125V24.4664ZM24.7125 24.4664C24.7125 25.26 24.1061 25.8664 23.3125 25.8664C22.5189 25.8664 21.9125 25.26 21.9125 24.4664V23.0664H24.7125V24.4664ZM26.1125 16.58V22.1336H3.7125V16.58C3.7125 15.5536 4.5525 14.7136 5.57888 14.7136H24.2452C25.2716 14.7136 26.1116 15.5536 26.1116 16.58H26.1125Z" fill="black"/>
<path id="Vector 1" d="M2.52773 7.18533C1.68656 5.76051 1 3 1 3C3.15329 2.43816 4.5533 2.06895 5.49112 1C7.02259 2.24382 8.3997 2.69147 10 3C10 3 9.19918 5.7312 8.32258 7.18533C7.51762 8.52061 5.49112 10 5.49112 10C5.49112 10 3.33916 8.55978 2.52773 7.18533Z" stroke="#1A9E75"/>
</g>
</svg>
