<svg width="25" height="25" viewBox="0 0 25 25" fill="none" xmlns="http://www.w3.org/2000/svg">
<g id="Group">
<g id="Group_2">
<path id="Vector" d="M16.9643 0.543457H14.5833C14.3465 0.543457 14.1195 0.629346 13.952 0.782275L12.7884 1.84473C10.8586 0.635742 8.61438 0 6.24999 0H1.7857C0.801055 0 0 0.731396 0 1.63042V3.26084C0 4.15986 0.801055 4.89126 1.7857 4.89126H6.24999C7.18656 4.89126 8.0966 5.08022 8.92857 5.44253V10.5978C8.92857 11.9463 10.1302 13.0435 11.6071 13.0435H12.5V15.4891C12.5 17.7367 14.5027 19.5652 16.9643 19.5652H19.6429V23.3695C19.6429 24.2686 20.4439 25 21.4286 25H23.2143C24.1989 25 25 24.2686 25 23.3695V7.88042C25.0001 3.83482 21.3952 0.543457 16.9643 0.543457ZM6.24999 3.26089H1.7857V1.63042H6.24999C8.13628 1.63042 9.93225 2.10869 11.4999 3.02109L10.1978 4.21001C8.99632 3.58799 7.6461 3.26089 6.24999 3.26089ZM19.6429 17.9348H16.9643C15.4873 17.9348 14.2857 16.8376 14.2857 15.4891V13.0435H16.9643C17.24 13.0435 17.5062 13.0818 17.7567 13.1527C17.5656 13.8239 17.1092 14.4211 16.469 14.8108C16.0588 15.0605 15.9479 15.5667 16.2214 15.9413C16.4951 16.316 17.0494 16.4171 17.4596 16.1674C18.2555 15.6829 18.8717 14.9948 19.2435 14.2063C19.4965 14.5794 19.6429 15.0188 19.6429 15.4891L19.6429 17.9348ZM23.2144 23.3696H21.4286V19.5652H23.2144V23.3696ZM23.2144 17.9348H21.4286V15.4891C21.4286 13.2381 19.4195 11.413 16.9644 11.413H11.6071C11.1148 11.413 10.7143 11.0473 10.7143 10.5978V6.04414L14.9531 2.17388H16.9643C20.4105 2.17388 23.2143 4.73384 23.2143 7.88042L23.2144 17.9348Z" fill="#3F3F3F"/>
</g>
</g>
</svg>
