<svg width="38" height="22" viewBox="0 0 38 22" fill="none" xmlns="http://www.w3.org/2000/svg">
<g id="Group 2">
<g id="Group 1">
<path id="Vector" d="M33.9515 5.28868L33.1404 5.95407H32.7276L32.815 5.81322H23.9755H18.9632H6.88911L7.42336 4.76414H19.4975H24.5098H32.815L32.7276 4.62329H33.1404L33.9515 5.28868ZM20.5174 6.13863L19.3032 8.52334H20.9497L22.1639 6.13863H20.5174ZM6.72398 6.13863L5.50977 8.52334H7.11253L7.80706 7.15371H9.89065L10.4103 6.13863H6.72398ZM12.2754 6.11434C11.7751 6.11434 11.3186 6.39604 11.0903 6.83801L10.2209 8.54763H11.2603L12.1637 6.77488H13.7276L13.611 7.00315H12.3239L11.9888 7.66368H13.2759L12.8242 8.54763H13.8635L15.102 6.10949H12.2754V6.11434ZM14.7718 7.91138L14.4269 8.58648H17.6276C18.2104 8.58648 18.6815 8.11537 18.6815 7.53254C18.6815 7.24599 18.4484 7.01286 18.1619 7.01286H16.3017L16.4377 6.74573H18.905L19.2449 6.08035H16.6465C16.1317 6.08035 15.5489 6.35233 15.2332 7.01286C15.0875 7.30427 15.2963 7.64911 15.6217 7.64911H17.5839L17.4479 7.91624H14.7718V7.91138ZM25.1266 7.64911L25.452 7.01286H23.9124C23.4121 7.01286 22.9556 7.29456 22.7273 7.74139L22.6302 7.93081C22.4796 8.22707 22.6933 8.57677 23.0284 8.57677H26.0154L26.9916 6.66317C27.1228 6.4009 26.9333 6.09006 26.6419 6.09006H23.7084L23.3587 6.77973H25.8648L25.7434 7.01286L25.3014 7.88709H23.7084L23.8201 7.65397H25.1266V7.64911ZM31.0568 6.06092C31.3385 6.06092 31.5231 6.35719 31.3919 6.60974L30.0709 9.20816C29.862 9.62099 29.4346 9.88326 28.9684 9.88326H14.9903L15.1603 10.0872H14.8252L14.1647 9.54328L14.8252 8.99931H15.1603L14.9903 9.2033H28.9926L29.352 8.49906H27.385C27.0936 8.49906 26.9042 8.18822 27.0353 7.93081L27.691 6.6486C27.8756 6.28919 28.2447 6.06092 28.6527 6.06092H31.0568ZM30.27 6.69717H28.7207L28.1475 7.82396H29.6969L30.27 6.69717Z" fill="black"/>
<path id="Vector_2" d="M19.4151 4.68158L18.8809 5.73066H23.8931L24.4274 4.68158H19.4151Z" fill="#38AC49"/>
<path id="Vector_3" d="M7.34089 4.68158L6.80664 5.73066H18.8808L19.415 4.68158H7.34089Z" fill="#E98824"/>
<path id="Vector_4" d="M33.0575 4.54073H32.6446L32.732 4.68158H24.4268L23.8926 5.73066H32.732L32.6446 5.87637H33.0575L33.8734 5.20612L33.0575 4.54073Z" fill="#E98824"/>
<path id="Vector_5" d="M21.2262 5.56065C21.6342 5.35181 21.8284 5.54608 21.8722 5.60437L21.7265 5.7015C21.571 5.56065 21.3088 5.63836 21.2359 5.66751L21.2262 5.56065ZM21.1922 5.26439L21.2068 5.40038C21.8187 5.08954 22.0616 5.40523 22.0956 5.4538L22.2753 5.33724C22.1199 5.01669 21.4836 5.07011 21.1922 5.26439ZM21.1582 4.96326L21.1728 5.0944C21.9402 4.75442 22.3287 4.91955 22.4987 5.18668L22.6833 5.06526C22.353 4.53586 21.5565 4.71071 21.1582 4.96326Z" fill="white"/>
<path id="Vector_6" d="M21.111 4.54073C22.0095 4.02104 22.9275 4.14246 23.214 4.70586L22.9712 4.86614C22.7089 4.38045 21.8687 4.28817 21.1304 4.73986L21.111 4.54073ZM21.0527 4.01133L21.0819 4.28817C22.0581 3.76363 23.112 3.82677 23.5006 4.51644L23.8503 4.28331C23.5492 3.45765 21.8833 3.44308 21.0527 4.01133Z" fill="#E98824"/>
<path id="Vector_7" d="M9.80861 7.07599H7.72502L7.0305 8.44562H5.42773L6.64195 6.06091H10.3283L9.80861 7.07599ZM12.1982 6.03177C11.6979 6.03177 11.2414 6.31347 11.0131 6.75544L10.1437 8.46505H11.1831L12.0865 6.6923H13.6504L13.5338 6.92057H12.2419L11.9068 7.5811H13.1938L12.747 8.46505H13.7864L15.0249 6.02691H12.1982V6.03177ZM18.8278 6.6583L19.1678 5.99291H16.5693C16.0545 5.99291 15.4717 6.2649 15.1511 6.92543C15.0054 7.21684 15.2143 7.56168 15.5397 7.56168H17.5019L17.3659 7.8288H14.6897L14.3449 8.5039H17.5456C18.1284 8.5039 18.5995 8.03279 18.5995 7.44997C18.5995 7.16341 18.3664 6.92543 18.0798 6.92543H16.2197L16.3556 6.6583H18.8278Z" fill="#E98824"/>
<path id="Vector_8" d="M20.8719 8.44077H19.2254L20.4396 6.05605H22.0861L20.8719 8.44077ZM26.5593 6.00748H23.6257L23.276 6.69716H25.787L25.6656 6.93029L25.2236 7.80452H23.6306L23.7423 7.57139H25.0537L25.3791 6.93514H23.8394C23.3392 6.93514 22.8826 7.21684 22.6544 7.66367L22.5572 7.85309C22.4067 8.14936 22.6204 8.49905 22.9555 8.49905H25.9425L26.9187 6.58545C27.045 6.31832 26.8507 6.00748 26.5593 6.00748ZM30.979 5.9832C31.2607 5.9832 31.4453 6.27947 31.3141 6.53202L29.9931 9.13044C29.7842 9.54327 29.3568 9.80554 28.8954 9.80554H14.9077L15.0825 10.0095H14.7426L14.082 9.46556L14.7426 8.92645H15.0825L14.9077 9.13044H28.91L29.2694 8.4262H27.3024C27.011 8.4262 26.8216 8.11536 26.9527 7.85794L27.6084 6.57573C27.7929 6.21633 28.162 5.98806 28.57 5.98806H30.979M30.1873 6.61945H28.638L28.0649 7.74624H29.6142L30.1873 6.61945Z" fill="#38AC49"/>
<path id="Vector_9" d="M25.6175 5.28868H24.6558C24.6218 5.28868 24.5975 5.25469 24.617 5.22069L24.6412 5.17212C24.6558 5.14298 24.685 5.12841 24.7141 5.12841H25.6758C25.7098 5.12841 25.734 5.16241 25.7146 5.1964L25.6903 5.24497C25.6806 5.26926 25.6515 5.28868 25.6175 5.28868ZM27.7885 5.28868C27.8225 5.28868 27.8516 5.26926 27.8613 5.24011L27.8856 5.19155C27.9002 5.1624 27.8808 5.12355 27.8468 5.12355H26.8851C26.8511 5.12355 26.822 5.14298 26.8074 5.16726L26.7831 5.21583C26.7685 5.24497 26.788 5.28383 26.822 5.28383H27.7885M29.9595 5.28868C29.9935 5.28868 30.0226 5.26926 30.0372 5.24011L30.0615 5.19155C30.0761 5.1624 30.0566 5.12355 30.0226 5.12355H29.061C29.027 5.12355 28.9978 5.14298 28.9833 5.16726L28.959 5.21583C28.9444 5.24497 28.9638 5.28383 28.9978 5.28383H29.9595M32.1305 5.28868C32.1645 5.28868 32.1936 5.26926 32.2082 5.24011L32.2325 5.19155C32.2471 5.1624 32.2276 5.12355 32.1936 5.12355H31.232C31.198 5.12355 31.1689 5.14298 31.1591 5.16726L31.1349 5.21583C31.1203 5.24497 31.1397 5.28383 31.1737 5.28383H32.1305M18.1428 9.52386C18.1671 9.52386 18.1865 9.50929 18.1962 9.48986L18.2108 9.45586C18.2205 9.43643 18.2059 9.40729 18.1816 9.40729H17.5017C17.4774 9.40729 17.458 9.42186 17.4483 9.44129L17.4288 9.47529C17.4191 9.49472 17.4337 9.52386 17.458 9.52386H18.1428ZM21.4357 9.52386C21.46 9.52386 21.4794 9.50929 21.4892 9.48986L21.5037 9.45586C21.5134 9.43643 21.4989 9.40729 21.4746 9.40729H20.7946C20.7703 9.40729 20.7509 9.42186 20.7412 9.44129L20.7218 9.47529C20.7121 9.49472 20.7266 9.52386 20.7509 9.52386H21.4357ZM24.7335 9.52386C24.7578 9.52386 24.7772 9.50929 24.787 9.48986L24.8015 9.45586C24.8112 9.43643 24.7967 9.40729 24.7724 9.40729H24.0924C24.0681 9.40729 24.0487 9.42186 24.039 9.44129L24.0196 9.47529C24.0099 9.49472 24.0244 9.52386 24.0487 9.52386H24.7335ZM28.0265 9.52386C28.0508 9.52386 28.0702 9.50929 28.0799 9.48986L28.0945 9.45586C28.1042 9.43643 28.0896 9.40729 28.0653 9.40729H27.3854C27.3611 9.40729 27.3417 9.42186 27.3319 9.44129L27.3125 9.47529C27.3028 9.49472 27.3174 9.52386 27.3417 9.52386H28.0265Z" fill="#EDC91A"/>
</g>
<rect id="Rectangle 3" x="6.33398" y="12.2069" width="26.2381" height="1.80952" fill="#1A9E75"/>
<rect id="Rectangle 4" x="6.33398" y="15.826" width="26.2381" height="1.80952" fill="#1A9E75"/>
<rect id="Rectangle 5" x="0.5" y="0.5" width="37" height="20.7143" rx="3.5" stroke="black"/>
</g>
</svg>
