<svg width="9" height="8" viewBox="0 0 9 8" fill="none" xmlns="http://www.w3.org/2000/svg">
<g id="Group">
<path id="Vector" d="M9 0.555556C9 0.702898 8.94732 0.844205 8.85355 0.948392C8.75979 1.05258 8.63261 1.11111 8.5 1.11111H0.5C0.367392 1.11111 0.240215 1.05258 0.146447 0.948392C0.0526784 0.844205 0 0.702898 0 0.555556C0 0.408213 0.0526784 0.266905 0.146447 0.162718C0.240215 0.0585315 0.367392 0 0.5 0H8.5C8.63261 0 8.75979 0.0585315 8.85355 0.162718C8.94732 0.266905 9 0.408213 9 0.555556ZM9 3.51852C9 3.66586 8.94732 3.80717 8.85355 3.91136C8.75979 4.01554 8.63261 4.07407 8.5 4.07407H0.5C0.367392 4.07407 0.240215 4.01554 0.146447 3.91136C0.0526784 3.80717 0 3.66586 0 3.51852C0 3.37118 0.0526784 3.22987 0.146447 3.12568C0.240215 3.02149 0.367392 2.96296 0.5 2.96296H8.5C8.63261 2.96296 8.75979 3.02149 8.85355 3.12568C8.94732 3.22987 9 3.37118 9 3.51852ZM9 6.48148C9 6.62882 8.94732 6.77013 8.85355 6.87432C8.75979 6.97851 8.63261 7.03704 8.5 7.03704H0.5C0.367392 7.03704 0.240215 6.97851 0.146447 6.87432C0.0526784 6.77013 0 6.62882 0 6.48148C0 6.33414 0.0526784 6.19283 0.146447 6.08864C0.240215 5.98446 0.367392 5.92593 0.5 5.92593H8.5C8.63261 5.92593 8.75979 5.98446 8.85355 6.08864C8.94732 6.19283 9 6.33414 9 6.48148Z" fill="black"/>
</g>
</svg>
