<svg width="23" height="22" viewBox="0 0 23 22" fill="none" xmlns="http://www.w3.org/2000/svg">
<g id="Group">
<path id="Vector" d="M6.6406 16.2919C6.6406 16.9008 6.16155 17.3944 5.57043 17.3944C4.97931 17.3944 4.5 16.9008 4.5 16.2919C4.5 15.6827 4.97931 15.1891 5.57043 15.1891C6.16155 15.1891 6.6406 15.6827 6.6406 16.2919Z" fill="black"/>
<path id="Vector_2" d="M18.5 16.2919C18.5 16.9008 18.0207 17.3944 17.4298 17.3944C16.8387 17.3944 16.3594 16.9008 16.3594 16.2919C16.3594 15.6827 16.8387 15.1891 17.4298 15.1891C18.0207 15.1891 18.5 15.6827 18.5 16.2919Z" fill="black"/>
<path id="Vector_3" d="M8.80463 15.9755C8.4078 15.9755 8.08594 16.2974 8.08594 16.6942C8.08594 17.091 8.40781 17.4129 8.80463 17.4129H14.1978C14.5946 17.4129 14.9165 17.091 14.9165 16.6942C14.9165 16.2974 14.5946 15.9755 14.1978 15.9755H8.80463Z" fill="black"/>
<path id="Vector_4" d="M22.2813 19.5988H0.71869C0.321861 19.5988 0 19.9207 0 20.3175C0 20.7143 0.321874 21.0362 0.71869 21.0362H22.2813C22.6781 21.0362 23 20.7143 23 20.3175C23 19.9207 22.6781 19.5988 22.2813 19.5988Z" fill="black"/>
<path id="Vector_5" d="M2.53111 17.4137C2.92794 17.4137 3.2498 17.0918 3.2498 16.695V14.9655C3.2498 14.1709 3.89533 13.5244 4.68847 13.5244L18.3089 13.5241C19.102 13.5241 19.747 14.1709 19.747 14.9653V16.6947C19.747 17.0916 20.0689 17.4134 20.4657 17.4134C20.8625 17.4134 21.1844 17.0915 21.1844 16.6947V14.9653C21.1844 13.679 20.3371 12.5876 19.1722 12.2196L18.8283 11.5653H20.0037C20.4005 11.5653 20.7224 11.2435 20.7224 10.8466C20.7224 10.4498 20.4005 10.1279 20.0037 10.1279H18.0729L17.178 8.42482C16.7413 7.59453 15.8878 7.07889 14.9507 7.07889H8.04618C7.10865 7.07889 6.25558 7.59479 5.81939 8.42482L4.92422 10.1279H2.99346C2.59664 10.1279 2.27477 10.4498 2.27477 10.8466C2.27477 11.2435 2.59665 11.5653 2.99346 11.5653H4.16844L3.8245 12.2198C2.6596 12.5881 1.8125 13.6796 1.8125 14.9655V16.695C1.8125 17.0918 2.13437 17.4137 2.53119 17.4137L2.53111 17.4137ZM7.09174 9.09345C7.27875 8.73748 7.64449 8.51638 8.04607 8.51638H14.9512C15.3526 8.51638 15.7186 8.73748 15.9058 9.0937L17.4786 12.0863H5.51908L7.09174 9.09345Z" fill="black"/>
<path id="Vector_6" d="M2.48622 5.3816C2.92115 5.81953 3.49947 6.06069 4.1149 6.06069C4.73032 6.06069 5.30887 5.81928 5.7441 5.38134C6.49962 4.61978 6.63478 3.44911 6.07299 2.53411L4.72757 0.342679C4.59697 0.129601 4.36484 0 4.11516 0C3.86547 0 3.63335 0.129851 3.50274 0.342679L2.15732 2.53392C1.59555 3.44892 1.73066 4.61959 2.48622 5.38115C2.48597 5.38165 2.48622 5.3816 2.48622 5.3816ZM3.3819 3.28643L4.11516 2.09246L4.84841 3.28668C5.06199 3.63463 5.01085 4.07956 4.72433 4.36886C4.39844 4.697 3.83217 4.697 3.50649 4.36886C3.21946 4.07932 3.16807 3.63438 3.3819 3.28643Z" fill="#1A9E75"/>
<path id="Vector_7" d="M11.5016 6.06055C12.1175 6.06055 12.6958 5.81915 13.1303 5.38146C13.8866 4.62016 14.022 3.44923 13.4599 2.53423L12.1145 0.342801C11.9839 0.129722 11.7518 0.00012207 11.5021 0.00012207C11.2524 0.00012207 11.0203 0.129973 10.8897 0.342801L9.54424 2.53404C8.98196 3.44929 9.11758 4.61997 9.87338 5.38152C10.3076 5.81921 10.8859 6.06062 11.5016 6.06062L11.5016 6.06055ZM10.7686 3.28629L11.5018 2.09233L12.2351 3.28655C12.4487 3.6345 12.3975 4.07942 12.1105 4.36872C11.7851 4.69662 11.2191 4.69712 10.8932 4.36872C10.6059 4.07944 10.5547 3.63469 10.7686 3.28629Z" fill="#1A9E75"/>
<path id="Vector_8" d="M18.8841 6.21521H18.8843C19.5 6.21496 20.0783 5.97381 20.5135 5.53586C21.269 4.77456 21.4042 3.60363 20.8424 2.68863L19.497 0.497204C19.3664 0.284126 19.1342 0.154526 18.8846 0.154526C18.6349 0.154526 18.4028 0.284376 18.2721 0.497204L16.9267 2.68863C16.3649 3.60389 16.5003 4.77456 17.2564 5.53586C17.6903 5.9738 18.2689 6.21496 18.8841 6.21521ZM18.1513 3.44095L18.8846 2.24699L19.6178 3.44095C19.8314 3.78915 19.7803 4.23434 19.4937 4.52313C19.331 4.68707 19.1147 4.77757 18.8848 4.77757C18.6555 4.77731 18.4391 4.68707 18.2762 4.52313C17.9886 4.23409 17.9375 3.78891 18.1513 3.44095Z" fill="#1A9E75"/>
</g>
</svg>
