<svg width="28" height="28" viewBox="0 0 28 28" fill="none" xmlns="http://www.w3.org/2000/svg">
<g id="location-pin-map_svgrepo.com">
<path id="Vector" d="M14 11.375C14.9665 11.375 15.75 10.5915 15.75 9.625C15.75 8.6585 14.9665 7.875 14 7.875C13.0335 7.875 12.25 8.6585 12.25 9.625C12.25 10.5915 13.0335 11.375 14 11.375Z" stroke="#1A9E75" stroke-width="2" stroke-miterlimit="10" stroke-linecap="round" stroke-linejoin="round"/>
<path id="Vector_2" d="M16.8 18.375H21.875L25.375 25.375H2.625L6.125 18.375H11.2" stroke="#1A9E75" stroke-width="2" stroke-miterlimit="10" stroke-linecap="round" stroke-linejoin="round"/>
<path id="Vector_3" d="M21 9.5375C21 15.6625 14 21 14 21C14 21 7 15.6625 7 9.5375C7 5.6875 10.15 2.625 14 2.625C17.85 2.625 21 5.6875 21 9.5375Z" stroke="black" stroke-width="1.2" stroke-miterlimit="10" stroke-linecap="round" stroke-linejoin="round"/>
</g>
</svg>
